<svg width="253" height="46" viewBox="0 0 253 46" fill="none" xmlns="http://www.w3.org/2000/svg">
<g clip-path="url(#clip0_377_417)">
<path d="M57.5289 20.619C60.1705 20.619 61.0416 19.1051 60.9185 15.5792C60.1326 16.0774 58.7029 16.1732 57.5005 16.499C56.2601 16.796 55.2186 17.323 55.2186 18.674C55.2186 20.0249 56.298 20.619 57.5289 20.619ZM50.3615 11.7562C50.4561 9.51421 51.4976 8.06743 53.0031 7.17637C54.4991 6.32363 56.459 5.98828 58.381 5.98828C62.3861 5.98828 66.2586 6.87935 66.2586 11.7275V19.2105C66.2586 20.6573 66.2586 22.2478 66.9119 23.5988H61.3446C61.1457 23.0718 61.0795 22.5448 61.0227 21.9795C59.593 23.4934 57.4721 24.0874 55.4553 24.0874C52.2362 24.0874 49.6892 22.4394 49.6892 18.9135C49.6892 13.3467 55.6826 13.7683 59.5267 12.9827C60.4735 12.7814 60.9942 12.4557 60.9942 11.4017C60.9942 10.1178 59.4604 9.61961 58.3242 9.61961C56.7904 9.61961 55.8151 10.3095 55.5595 11.7658H50.3804L50.3615 11.7562Z" fill="white"/>
<path d="M75.6414 0.0576172H70.1025V23.5894H75.6414V0.0576172Z" fill="white"/>
<path d="M79.5424 6.47675H84.9204V8.81459H84.9866C85.9997 7.09953 87.7892 5.97852 89.8344 5.97852C91.8795 5.97852 93.8394 6.66837 94.7484 8.74752C96.0834 6.93665 97.7498 5.97852 100.022 5.97852C105.4 5.97852 105.978 10.0985 105.978 13.3561V23.5699H100.439V13.519C100.439 11.6698 99.5582 10.5871 98.1285 10.5871C95.752 10.5871 95.5248 12.4363 95.5248 15.2053V23.5794H89.9859V13.8544C89.9859 11.8423 89.3988 10.5871 87.9029 10.5871C85.9145 10.5871 85.0719 11.7369 85.0719 15.2341V23.5699H79.533V6.47675H79.5424Z" fill="white"/>
<path d="M116.639 20.619C119.28 20.619 120.152 19.1051 120.028 15.5792C119.243 16.0774 117.813 16.1732 116.61 16.499C115.37 16.796 114.329 17.323 114.329 18.674C114.329 20.0249 115.408 20.619 116.639 20.619ZM109.471 11.7562C109.566 9.51421 110.608 8.06743 112.113 7.17637C113.609 6.32363 115.569 5.98828 117.491 5.98828C121.496 5.98828 125.378 6.87935 125.378 11.7275V19.2105C125.378 20.6573 125.378 22.2478 126.031 23.5988H120.464C120.265 23.0718 120.208 22.5448 120.142 21.9795C118.712 23.4934 116.591 24.0874 114.575 24.0874C111.356 24.0874 108.809 22.4394 108.809 18.9135C108.809 13.3467 114.802 13.7683 118.646 12.9827C119.593 12.7814 120.114 12.4557 120.114 11.4017C120.114 10.1178 118.58 9.61961 117.444 9.61961C115.91 9.61961 114.935 10.3095 114.679 11.7658H109.5L109.471 11.7562Z" fill="white"/>
<path d="M140.025 12.7429C139.997 11.2962 138.719 10.271 137.317 10.271C134.221 10.271 133.738 12.9441 133.738 15.3107C133.738 17.524 134.685 19.7948 137.024 19.7948C138.946 19.7948 139.921 18.6738 140.186 16.8629H145.564C145.072 21.4428 141.559 24.0777 137.062 24.0777C131.977 24.0777 128.199 20.5517 128.199 15.3107C128.199 10.0697 131.617 5.97852 137.062 5.97852C141.266 5.97852 145.006 8.22055 145.403 12.7334H140.025V12.7429Z" fill="white"/>
<path d="M159.918 13.2703C159.823 11.3636 158.488 9.77309 156.632 9.77309C154.682 9.77309 153.375 11.1911 153.053 13.2703H159.927H159.918ZM153.044 16.4034C153.139 18.7412 154.474 20.2934 156.822 20.2934C158.157 20.2934 159.463 19.6706 159.984 18.4155H165.163C164.15 22.3726 160.533 24.0876 156.756 24.0876C151.255 24.0876 147.505 20.7246 147.505 14.9949C147.505 9.75393 151.643 5.99805 156.623 5.99805C162.683 5.99805 165.713 10.6163 165.447 16.413H153.035L153.044 16.4034Z" fill="white"/>
<path d="M168.222 6.47675H173.6V8.81459H173.666C174.679 7.07079 176.951 5.97852 178.978 5.97852C184.611 5.97852 185.066 10.1272 185.066 12.5992V23.5794H179.527V15.3107C179.527 12.9729 179.792 10.5967 176.762 10.5967C174.679 10.5967 173.77 12.3788 173.77 14.2568V23.589H168.231V6.47675H168.222Z" fill="white"/>
<path d="M195.68 20.619C198.321 20.619 199.192 19.1051 199.069 15.5792C198.283 16.0774 196.854 16.1732 195.651 16.499C194.411 16.796 193.369 17.323 193.369 18.674C193.369 20.0249 194.449 20.619 195.68 20.619ZM188.512 11.7562C188.607 9.51421 189.648 8.06743 191.154 7.17637C192.65 6.32363 194.61 5.98828 196.532 5.98828C200.537 5.98828 204.419 6.87935 204.419 11.7275V19.2105C204.419 20.6573 204.419 22.2478 205.072 23.5988H199.505C199.306 23.0718 199.249 22.5448 199.183 21.9795C197.753 23.4934 195.632 24.0874 193.616 24.0874C190.396 24.0874 187.849 22.4394 187.849 18.9135C187.849 13.3467 193.843 13.7683 197.687 12.9827C198.634 12.7814 199.154 12.4557 199.154 11.4017C199.154 10.1178 197.621 9.61961 196.484 9.61961C194.951 9.61961 193.975 10.3095 193.72 11.7658H188.541L188.512 11.7562Z" fill="white"/>
<path d="M213.783 4.34048H208.244V0.0576172H213.783V4.34048ZM213.783 23.5894C213.783 27.9106 212.088 29.3286 208.178 29.3286H205.375V24.7775H206.483C207.619 24.7487 208.244 24.4134 208.244 23.1965V6.47711H213.783V23.5798V23.5894Z" fill="white"/>
<path d="M229.292 13.2703C229.197 11.3636 227.862 9.77309 226.006 9.77309C224.056 9.77309 222.749 11.1911 222.427 13.2703H229.301H229.292ZM222.418 16.4034C222.512 18.7412 223.848 20.2934 226.196 20.2934C227.531 20.2934 228.837 19.6706 229.358 18.4155H234.537C233.524 22.3726 229.907 24.0876 226.129 24.0876C220.628 24.0876 216.879 20.7246 216.879 14.9949C216.879 9.75393 221.017 5.99805 225.997 5.99805C232.056 5.99805 235.086 10.6163 234.821 16.413H222.408L222.418 16.4034Z" fill="white"/>
<path d="M241.894 17.9458C241.894 18.8081 242.254 19.4309 242.803 19.8621C243.324 20.2549 244.071 20.4561 244.857 20.4561C245.937 20.4561 247.461 19.9962 247.461 18.6452C247.461 17.2943 245.738 17.0643 244.763 16.8344C241.278 15.9433 236.914 15.8475 236.914 11.2293C236.914 7.1093 241.307 5.98828 244.63 5.98828C248.342 5.98828 252.224 7.07097 252.413 11.5263H247.3C247.3 10.7981 247.045 10.3382 246.581 10.0412C246.126 9.74416 245.511 9.61003 244.819 9.61003C243.911 9.61003 242.443 9.70584 242.443 10.8939C242.443 12.5132 246.155 12.8102 248.692 13.3659C252.11 14.0558 252.991 16.5661 252.991 17.9841C252.991 22.564 248.692 24.0778 244.876 24.0778C240.871 24.0778 236.762 22.7269 236.601 17.9458H241.875H241.894Z" fill="white"/>
<path d="M50.0017 31.0152H51.2136V32.8548H51.2799C51.9711 31.5422 53.0978 30.6895 54.821 30.6895C56.2413 30.6895 57.5195 31.3889 57.9171 32.8261C58.5704 31.3889 59.9244 30.6895 61.3541 30.6895C63.7211 30.6895 64.9331 31.9446 64.9331 34.522V41.9379H63.617V34.5891C63.617 32.7878 62.9447 31.8105 61.0606 31.8105C58.7787 31.8105 58.1254 33.7172 58.1254 35.7484V41.9379H56.8093V34.522C56.8283 33.0369 56.2223 31.8105 54.5464 31.8105C52.2646 31.8105 51.3462 33.5447 51.3178 35.8346V41.9379H50.0017V31.0056V31.0152Z" fill="white"/>
<path d="M67.4609 31.0248H68.777V41.9571H67.4609V31.0248ZM67.4609 26.8281H68.777V28.9648H67.4609V26.8281Z" fill="white"/>
<path d="M71.2957 31.0144H72.6117V32.9019H72.6496C73.1325 31.5893 74.5811 30.6982 76.1055 30.6982C79.1448 30.6982 80.0632 32.3079 80.0632 34.914V41.9467H78.7471V35.1248C78.7471 33.2373 78.1412 31.8193 76.0013 31.8193C73.8615 31.8193 72.6496 33.4289 72.6117 35.5656V41.9467H71.2957V31.0144Z" fill="white"/>
<path d="M82.5818 31.0248H83.8979V41.9571H82.5818V31.0248ZM82.5818 26.8281H83.8979V28.9648H82.5818V26.8281Z" fill="white"/>
<path d="M90.8284 41.152C93.631 41.152 94.6157 38.7567 94.6157 36.4955C94.6157 34.2343 93.631 31.8294 90.8284 31.8294C88.3194 31.8294 87.2873 34.2247 87.2873 36.4955C87.2873 38.7663 88.3099 41.152 90.8284 41.152ZM95.9413 41.9569H94.7293V39.8777H94.6915C94.1234 41.2958 92.4096 42.2731 90.8379 42.2731C87.5524 42.2731 85.9807 39.5807 85.9807 36.4859C85.9807 33.3912 87.5524 30.6988 90.8379 30.6988C92.4475 30.6988 94.0192 31.5228 94.5873 33.0941H94.6347V26.8184H95.9507V41.9473L95.9413 41.9569Z" fill="white"/>
<path d="M106.214 35.7284C106.148 33.7164 104.917 31.8288 102.777 31.8288C100.638 31.8288 99.4257 33.7355 99.2174 35.7284H106.214ZM99.2269 36.8495C99.2459 38.8041 100.249 41.1515 102.787 41.1515C104.718 41.1515 105.76 40.0113 106.177 38.3537H107.493C106.925 40.8353 105.504 42.2725 102.777 42.2725C99.3405 42.2725 97.9014 39.5993 97.9014 36.4854C97.9014 33.6014 99.35 30.6982 102.777 30.6982C106.205 30.6982 107.635 33.7739 107.531 36.8399H99.2174L99.2269 36.8495Z" fill="white"/>
<path d="M114.423 31.8288C111.516 31.8288 110.636 34.0134 110.636 36.4854C110.636 38.7561 111.621 41.1515 114.423 41.1515C116.932 41.1515 117.964 38.7561 117.964 36.4854C117.964 34.2146 116.942 31.8288 114.423 31.8288ZM109.32 31.0144H110.532V33.0936H110.57C111.176 31.6085 112.681 30.6982 114.423 30.6982C117.709 30.6982 119.28 33.3906 119.28 36.4854C119.28 39.5801 117.709 42.2725 114.423 42.2725C112.814 42.2725 111.242 41.4485 110.674 39.8772H110.636V45.9996H109.32V31.0144Z" fill="white"/>
<path d="M125.728 29.4913H124.658L126.855 26.502H128.484L125.719 29.4913H125.728ZM122.111 36.4857C122.111 38.814 123.371 41.1518 125.899 41.1518C128.427 41.1518 129.686 38.8236 129.686 36.4857C129.686 34.1479 128.427 31.8292 125.899 31.8292C123.371 31.8292 122.111 34.1574 122.111 36.4857ZM131.012 36.4857C131.012 39.6188 129.213 42.2728 125.899 42.2728C122.585 42.2728 120.786 39.6284 120.786 36.4857C120.786 33.343 122.585 30.6986 125.899 30.6986C129.213 30.6986 131.012 33.343 131.012 36.4857Z" fill="white"/>
<path d="M139.448 34.2152C139.381 32.5672 138.132 31.8199 136.617 31.8199C135.443 31.8199 134.06 32.2894 134.06 33.7074C134.06 34.8955 135.405 35.3171 136.304 35.547L138.065 35.9494C139.571 36.1794 141.143 37.0704 141.143 38.9771C141.143 41.3533 138.813 42.2635 136.806 42.2635C134.297 42.2635 132.574 41.0754 132.365 38.4022H133.682C133.786 40.2035 135.102 41.1329 136.863 41.1329C138.094 41.1329 139.817 40.5868 139.817 39.0538C139.817 37.7795 138.643 37.3579 137.45 37.0609L135.755 36.6776C134.041 36.2081 132.744 35.6141 132.744 33.7553C132.744 31.5324 134.903 30.6797 136.806 30.6797C138.965 30.6797 140.679 31.8199 140.764 34.196H139.448V34.2152Z" fill="white"/>
<path d="M143.065 31.0248H144.381V41.9571H143.065V31.0248ZM143.065 26.8281H144.381V28.9648H143.065V26.8281Z" fill="white"/>
<path d="M149.011 31.0147H151.207V32.1357H149.011V39.5134C149.011 40.3853 149.134 40.8931 150.081 40.9506C150.459 40.9506 150.838 40.9314 151.207 40.8835V42.0333C150.81 42.0333 150.431 42.0716 150.033 42.0716C148.272 42.0716 147.666 41.4776 147.685 39.6092V32.1262H145.801V31.0051H147.685V27.7188H149.001V31.0051L149.011 31.0147Z" fill="white"/>
<path d="M153.887 36.4854C153.887 38.8136 155.146 41.1515 157.674 41.1515C160.202 41.1515 161.461 38.8232 161.461 36.4854C161.461 34.1475 160.202 31.8288 157.674 31.8288C155.146 31.8288 153.887 34.1571 153.887 36.4854ZM162.787 36.4854C162.787 39.6185 160.988 42.2725 157.674 42.2725C154.36 42.2725 152.561 39.628 152.561 36.4854C152.561 33.3427 154.36 30.6982 157.674 30.6982C160.988 30.6982 162.787 33.3427 162.787 36.4854Z" fill="white"/>
<path d="M171.223 34.2152C171.157 32.5672 169.907 31.8199 168.392 31.8199C167.218 31.8199 165.836 32.2894 165.836 33.7074C165.836 34.8955 167.18 35.3171 168.08 35.547L169.841 35.9494C171.346 36.1794 172.918 37.0704 172.918 38.9771C172.918 41.3533 170.589 42.2635 168.581 42.2635C166.072 42.2635 164.349 41.0754 164.141 38.4022H165.457C165.561 40.2035 166.877 41.1329 168.638 41.1329C169.869 41.1329 171.592 40.5868 171.592 39.0538C171.592 37.7795 170.418 37.3579 169.225 37.0609L167.53 36.6776C165.817 36.2081 164.52 35.6141 164.52 33.7553C164.52 31.5324 166.678 30.6797 168.581 30.6797C170.74 30.6797 172.454 31.8199 172.539 34.196H171.223V34.2152Z" fill="white"/>
<path d="M12.9525 0H0V13.1169H12.9525V0Z" fill="#EF7B34"/>
<path d="M27.1359 0H14.1833V13.1169H27.1359V0Z" fill="#EF7B34"/>
<path d="M41.3192 0H28.3667V13.1169H41.3192V0Z" fill="#EF7B34"/>
<path d="M12.9525 14.4199H0V27.5272H12.9525V14.4199Z" fill="#EF7B34"/>
<path d="M41.3192 14.4199H28.3667V27.5272H41.3192V14.4199Z" fill="#EF7B34"/>
<path d="M12.9525 28.8496H0V41.9569H12.9525V28.8496Z" fill="#EF7B34"/>
<path d="M27.1359 28.8496H14.1833V41.9569H27.1359V28.8496Z" fill="#EF7B34"/>
<path d="M41.3192 28.8496H28.3667V41.9569H41.3192V28.8496Z" fill="#EF7B34"/>
</g>
<defs>
<clipPath id="clip0_377_417">
<rect width="253" height="46" fill="white"/>
</clipPath>
</defs>
</svg>
