<svg width="209" height="39" viewBox="0 0 209 39" fill="none" xmlns="http://www.w3.org/2000/svg">
<g clip-path="url(#clip0_818_9)">
<path d="M47.5239 17.5331C49.7061 17.5331 50.4257 16.2825 50.324 13.3698C49.6748 13.7814 48.4937 13.8605 47.5004 14.1297C46.4758 14.375 45.6154 14.8104 45.6154 15.9264C45.6154 17.0424 46.5071 17.5331 47.5239 17.5331ZM41.6029 10.2117C41.6812 8.35961 42.5415 7.16444 43.7852 6.42835C45.021 5.72391 46.64 5.44688 48.2278 5.44688C51.5363 5.44688 54.7353 6.18298 54.7353 10.188V16.3696C54.7353 17.5648 54.7353 18.8787 55.275 19.9947H50.676C50.5117 19.5594 50.4569 19.124 50.41 18.6571C49.229 19.9076 47.4769 20.3984 45.8109 20.3984C43.1516 20.3984 41.0476 19.037 41.0476 16.1242C41.0476 11.5256 45.9987 11.8739 49.1742 11.2248C49.9564 11.0586 50.3866 10.7895 50.3866 9.91887C50.3866 8.85826 49.1195 8.44668 48.1809 8.44668C46.9138 8.44668 46.1082 9.01656 45.897 10.2196H41.6186L41.6029 10.2117Z" fill="#222222"/>
<path d="M62.4865 0.547489H57.9109V19.9868H62.4865V0.547489Z" fill="#222222"/>
<path d="M65.709 5.85055H70.1516V7.78182H70.2064C71.0433 6.36503 72.5216 5.43897 74.211 5.43897C75.9005 5.43897 77.5196 6.00885 78.2704 7.72641C79.3733 6.23047 80.7499 5.43897 82.627 5.43897C87.0697 5.43897 87.5468 8.84243 87.5468 11.5335V19.9709H82.9712V11.6681C82.9712 10.1405 82.2438 9.2461 81.0627 9.2461C79.0995 9.2461 78.9118 10.7737 78.9118 13.0611V19.9789H74.3362V11.9451C74.3362 10.283 73.8512 9.2461 72.6154 9.2461C70.9729 9.2461 70.2768 10.1959 70.2768 13.0849V19.9709H65.7012V5.85055H65.709Z" fill="#222222"/>
<path d="M96.3539 17.5331C98.5362 17.5331 99.2557 16.2825 99.154 13.3698C98.5049 13.7814 97.3238 13.8605 96.3305 14.1297C95.3058 14.375 94.4455 14.8104 94.4455 15.9264C94.4455 17.0424 95.3371 17.5331 96.3539 17.5331ZM90.433 10.2117C90.5112 8.35961 91.3716 7.16444 92.6152 6.42835C93.851 5.72391 95.4701 5.44688 97.0579 5.44688C100.366 5.44688 103.573 6.18298 103.573 10.188V16.3696C103.573 17.5648 103.573 18.8787 104.113 19.9947H99.5138C99.3496 19.5594 99.3027 19.124 99.2479 18.6571C98.0669 19.9076 96.3148 20.3984 94.6488 20.3984C91.9895 20.3984 89.8855 19.037 89.8855 16.1242C89.8855 11.5256 94.8365 11.8739 98.0121 11.2248C98.7943 11.0586 99.2244 10.7895 99.2244 9.91887C99.2244 8.85826 97.9574 8.44668 97.0188 8.44668C95.7517 8.44668 94.9461 9.01656 94.7349 10.2196H90.4565L90.433 10.2117Z" fill="#222222"/>
<path d="M115.673 11.027C115.65 9.83181 114.594 8.9849 113.436 8.9849C110.879 8.9849 110.48 11.1932 110.48 13.1482C110.48 14.9766 111.262 16.8524 113.194 16.8524C114.782 16.8524 115.587 15.9264 115.806 14.4304H120.249C119.842 18.2138 116.94 20.3904 113.225 20.3904C109.025 20.3904 105.904 17.4777 105.904 13.1482C105.904 8.81869 108.728 5.43897 113.225 5.43897C116.698 5.43897 119.787 7.29109 120.116 11.0191H115.673V11.027Z" fill="#222222"/>
<path d="M132.106 11.4623C132.028 9.88721 130.925 8.57332 129.392 8.57332C127.781 8.57332 126.701 9.74474 126.435 11.4623H132.114H132.106ZM126.428 14.0505C126.506 15.9818 127.609 17.264 129.548 17.264C130.651 17.264 131.731 16.7495 132.161 15.7127H136.439C135.602 18.9816 132.615 20.3984 129.494 20.3984C124.949 20.3984 121.852 17.6202 121.852 12.887C121.852 8.55749 125.27 5.4548 129.384 5.4548C134.39 5.4548 136.893 9.26984 136.674 14.0584H126.42L126.428 14.0505Z" fill="#222222"/>
<path d="M138.966 5.85055H143.408V7.78182H143.463C144.3 6.34128 146.177 5.43897 147.851 5.43897C152.505 5.43897 152.88 8.86618 152.88 10.9082V19.9789H148.305V13.1482C148.305 11.2169 148.524 9.25401 146.021 9.25401C144.3 9.25401 143.549 10.7262 143.549 12.2775V19.9868H138.974V5.85055H138.966Z" fill="#222222"/>
<path d="M161.648 17.5331C163.831 17.5331 164.55 16.2825 164.448 13.3698C163.799 13.7814 162.618 13.8605 161.625 14.1297C160.6 14.375 159.74 14.8104 159.74 15.9264C159.74 17.0424 160.632 17.5331 161.648 17.5331ZM155.727 10.2117C155.806 8.35961 156.666 7.16444 157.91 6.42835C159.145 5.72391 160.765 5.44688 162.352 5.44688C165.661 5.44688 168.868 6.18298 168.868 10.188V16.3696C168.868 17.5648 168.868 18.8787 169.407 19.9947H164.808C164.644 19.5594 164.597 19.124 164.542 18.6571C163.361 19.9076 161.609 20.3984 159.943 20.3984C157.284 20.3984 155.18 19.037 155.18 16.1242C155.18 11.5256 160.131 11.8739 163.307 11.2248C164.089 11.0586 164.519 10.7895 164.519 9.91887C164.519 8.85826 163.252 8.44668 162.313 8.44668C161.046 8.44668 160.24 9.01656 160.029 10.2196H155.751L155.727 10.2117Z" fill="#222222"/>
<path d="M176.603 4.0855H172.027V0.547489H176.603V4.0855ZM176.603 19.9868C176.603 23.5564 175.203 24.7279 171.973 24.7279H169.657V20.9682H170.573C171.511 20.9445 172.027 20.6675 172.027 19.6623V5.85055H176.603V19.9789V19.9868Z" fill="#222222"/>
<path d="M189.415 11.4623C189.336 9.88721 188.234 8.57332 186.701 8.57332C185.089 8.57332 184.01 9.74474 183.744 11.4623H189.423H189.415ZM183.736 14.0505C183.814 15.9818 184.917 17.264 186.857 17.264C187.96 17.264 189.039 16.7495 189.469 15.7127H193.748C192.911 18.9816 189.923 20.3984 186.802 20.3984C182.258 20.3984 179.161 17.6202 179.161 12.887C179.161 8.55749 182.579 5.4548 186.693 5.4548C191.699 5.4548 194.202 9.26984 193.983 14.0584H183.728L183.736 14.0505Z" fill="#222222"/>
<path d="M199.825 15.3248C199.825 16.0372 200.123 16.5517 200.576 16.9078C201.006 17.2323 201.624 17.3986 202.274 17.3986C203.165 17.3986 204.424 17.0186 204.424 15.9026C204.424 14.7866 203.001 14.5966 202.195 14.4067C199.317 13.6706 195.711 13.5914 195.711 9.7764C195.711 6.37294 199.34 5.44688 202.086 5.44688C205.152 5.44688 208.359 6.34128 208.515 10.0218H204.291C204.291 9.42022 204.08 9.0403 203.697 8.79494C203.322 8.54957 202.813 8.43876 202.242 8.43876C201.491 8.43876 200.279 8.51791 200.279 9.49937C200.279 10.837 203.345 11.0824 205.441 11.5414C208.265 12.1113 208.992 14.1851 208.992 15.3565C208.992 19.1399 205.441 20.3904 202.289 20.3904C198.981 20.3904 195.586 19.2744 195.453 15.3248H199.81H199.825Z" fill="#222222"/>
<path d="M41.3057 26.1209H42.3068V27.6406H42.3616C42.9325 26.5562 43.8633 25.8518 45.2868 25.8518C46.4601 25.8518 47.516 26.4296 47.8445 27.6168C48.3842 26.4296 49.5027 25.8518 50.6837 25.8518C52.6391 25.8518 53.6403 26.8887 53.6403 29.0178V35.144H52.5531V29.0732C52.5531 27.5852 51.9977 26.7779 50.4412 26.7779C48.5563 26.7779 48.0166 28.3529 48.0166 30.0309V35.144H46.9294V29.0178C46.945 27.791 46.4444 26.7779 45.06 26.7779C43.175 26.7779 42.4163 28.2105 42.3929 30.1022V35.144H41.3057V26.113V26.1209Z" fill="#222222"/>
<path d="M55.7288 26.1288H56.816V35.1599H55.7288V26.1288ZM55.7288 22.662H56.816V24.4271H55.7288V22.662Z" fill="#222222"/>
<path d="M58.8965 26.1209H59.9837V27.6802H60.015C60.4139 26.5958 61.6106 25.8597 62.8698 25.8597C65.3806 25.8597 66.1392 27.1894 66.1392 29.3423V35.1519H65.0521V29.5165C65.0521 27.9572 64.5515 26.7858 62.7838 26.7858C61.0161 26.7858 60.015 28.1155 59.9837 29.8805V35.1519H58.8965V26.1209Z" fill="#222222"/>
<path d="M68.2197 26.1288H69.3069V35.1599H68.2197V26.1288ZM68.2197 22.662H69.3069V24.4271H68.2197V22.662Z" fill="#222222"/>
<path d="M75.0322 34.495C77.3474 34.495 78.1609 32.5162 78.1609 30.6483C78.1609 28.7804 77.3474 26.7937 75.0322 26.7937C72.9595 26.7937 72.107 28.7724 72.107 30.6483C72.107 32.5242 72.9517 34.495 75.0322 34.495ZM79.2559 35.1599H78.2547V33.4423H78.2234C77.7541 34.6137 76.3384 35.4211 75.0401 35.4211C72.326 35.4211 71.0276 33.1969 71.0276 30.6404C71.0276 28.0838 72.326 25.8597 75.0401 25.8597C76.3697 25.8597 77.6681 26.5404 78.1374 27.8385H78.1765V22.6541H79.2637V35.1519L79.2559 35.1599Z" fill="#222222"/>
<path d="M87.7423 30.0151C87.6876 28.3529 86.6708 26.7937 84.9031 26.7937C83.1354 26.7937 82.1343 28.3688 81.9622 30.0151H87.7423ZM81.97 30.9412C81.9857 32.5558 82.8147 34.495 84.9109 34.495C86.5065 34.495 87.3669 33.5531 87.711 32.1838H88.7982C88.3289 34.2338 87.1557 35.4211 84.9031 35.4211C82.0639 35.4211 80.875 33.2128 80.875 30.6404C80.875 28.258 82.0717 25.8597 84.9031 25.8597C87.7345 25.8597 88.9156 28.4004 88.8295 30.9332H81.9622L81.97 30.9412Z" fill="#222222"/>
<path d="M94.5237 26.7937C92.1225 26.7937 91.3951 28.5983 91.3951 30.6404C91.3951 32.5162 92.2085 34.495 94.5237 34.495C96.5964 34.495 97.4489 32.5162 97.4489 30.6404C97.4489 28.7645 96.6042 26.7937 94.5237 26.7937ZM90.3079 26.1209H91.309V27.8385H91.3403C91.8409 26.6116 93.0845 25.8597 94.5237 25.8597C97.2378 25.8597 98.5361 28.0838 98.5361 30.6404C98.5361 33.1969 97.2378 35.4211 94.5237 35.4211C93.194 35.4211 91.8956 34.7404 91.4263 33.4423H91.3951V38.5H90.3079V26.1209Z" fill="#222222"/>
<path d="M103.863 24.8624H102.979L104.793 22.3929H106.139L103.855 24.8624H103.863ZM100.875 30.6404C100.875 32.5637 101.915 34.495 104.003 34.495C106.092 34.495 107.132 32.5717 107.132 30.6404C107.132 28.7091 106.092 26.7937 104.003 26.7937C101.915 26.7937 100.875 28.717 100.875 30.6404ZM108.227 30.6404C108.227 33.2286 106.741 35.4211 104.003 35.4211C101.266 35.4211 99.7798 33.2365 99.7798 30.6404C99.7798 28.0443 101.266 25.8597 104.003 25.8597C106.741 25.8597 108.227 28.0443 108.227 30.6404Z" fill="#222222"/>
<path d="M115.196 28.7645C115.141 27.4031 114.109 26.7858 112.857 26.7858C111.887 26.7858 110.746 27.1736 110.746 28.345C110.746 29.3265 111.856 29.6748 112.599 29.8647L114.054 30.1971C115.298 30.3871 116.596 31.1232 116.596 32.6983C116.596 34.6612 114.672 35.4131 113.014 35.4131C110.941 35.4131 109.518 34.4317 109.345 32.2234H110.433C110.519 33.7114 111.606 34.4792 113.061 34.4792C114.078 34.4792 115.501 34.028 115.501 32.7616C115.501 31.7089 114.531 31.3607 113.546 31.1153L112.146 30.7987C110.73 30.4109 109.658 29.9201 109.658 28.3846C109.658 26.5483 111.442 25.8439 113.014 25.8439C114.797 25.8439 116.213 26.7858 116.283 28.7487H115.196V28.7645Z" fill="#222222"/>
<path d="M118.184 26.1288H119.271V35.1599H118.184V26.1288ZM118.184 22.662H119.271V24.4271H118.184V22.662Z" fill="#222222"/>
<path d="M123.096 26.1209H124.91V27.047H123.096V33.1415C123.096 33.8618 123.198 34.2813 123.98 34.3288C124.293 34.3288 124.605 34.313 124.91 34.2734V35.2232C124.582 35.2232 124.269 35.2548 123.941 35.2548C122.486 35.2548 121.985 34.7641 122.001 33.2207V27.0391H120.444V26.113H122.001V23.3981H123.088V26.113L123.096 26.1209Z" fill="#222222"/>
<path d="M127.124 30.6404C127.124 32.5637 128.164 34.495 130.252 34.495C132.341 34.495 133.381 32.5717 133.381 30.6404C133.381 28.7091 132.341 26.7937 130.252 26.7937C128.164 26.7937 127.124 28.717 127.124 30.6404ZM134.476 30.6404C134.476 33.2286 132.99 35.4211 130.252 35.4211C127.515 35.4211 126.029 33.2365 126.029 30.6404C126.029 28.0443 127.515 25.8597 130.252 25.8597C132.99 25.8597 134.476 28.0443 134.476 30.6404Z" fill="#222222"/>
<path d="M141.445 28.7645C141.391 27.4031 140.358 26.7858 139.107 26.7858C138.137 26.7858 136.995 27.1736 136.995 28.345C136.995 29.3265 138.105 29.6748 138.849 29.8647L140.303 30.1971C141.547 30.3871 142.845 31.1232 142.845 32.6983C142.845 34.6612 140.921 35.4131 139.263 35.4131C137.19 35.4131 135.767 34.4317 135.595 32.2234H136.682C136.768 33.7114 137.855 34.4792 139.31 34.4792C140.327 34.4792 141.75 34.028 141.75 32.7616C141.75 31.7089 140.78 31.3607 139.795 31.1153L138.395 30.7987C136.979 30.4109 135.908 29.9201 135.908 28.3846C135.908 26.5483 137.691 25.8439 139.263 25.8439C141.046 25.8439 142.462 26.7858 142.532 28.7487H141.445V28.7645Z" fill="#222222"/>
<path d="M10.6999 0.5H0V11.3357H10.6999V0.5Z" fill="#EF7B34"/>
<path d="M22.4167 0.5H11.7168V11.3357H22.4167V0.5Z" fill="#EF7B34"/>
<path d="M34.1332 0.5H23.4333V11.3357H34.1332V0.5Z" fill="#EF7B34"/>
<path d="M10.6999 12.4121H0V23.2398H10.6999V12.4121Z" fill="#EF7B34"/>
<path d="M34.1332 12.4121H23.4333V23.2398H34.1332V12.4121Z" fill="#EF7B34"/>
<path d="M10.6999 24.3321H0V35.1599H10.6999V24.3321Z" fill="#EF7B34"/>
<path d="M22.4167 24.3321H11.7168V35.1599H22.4167V24.3321Z" fill="#EF7B34"/>
<path d="M34.1332 24.3321H23.4333V35.1599H34.1332V24.3321Z" fill="#EF7B34"/>
</g>
<defs>
<clipPath id="clip0_818_9">
<rect width="209" height="38" fill="white" transform="translate(0 0.5)"/>
</clipPath>
</defs>
</svg>
