<svg width="84" height="85" viewBox="0 0 84 85" fill="none" xmlns="http://www.w3.org/2000/svg">
<rect y="0.166748" width="84" height="84" rx="8" fill="#EF7B34"/>
<path d="M70.8662 28.9936V57.0025C70.3957 59.2627 68.8106 61.0484 66.4826 61.373H18.4862C16.0468 61.1108 14.2636 59.1378 13.9912 56.7278V29.4931C14.1646 26.9582 15.9601 24.9103 18.4862 24.623H66.4826C68.6001 24.8478 70.6062 26.8708 70.8662 28.9936ZM68.2039 46.3634V29.2808C68.2039 28.5066 66.9656 27.2953 66.1483 27.3203L18.35 27.3952C17.6813 27.4951 16.6659 28.6315 16.6659 29.2808V46.3634H68.2163H68.2039ZM68.2039 49.0481H16.6536V56.7278C16.6536 57.502 17.8918 58.7133 18.7091 58.6883L66.5074 58.6134C67.1761 58.5135 68.1915 57.3771 68.1915 56.7278V49.0481H68.2039Z" fill="white"/>
<path d="M41.6562 38.1827C40.3897 44.079 32.2374 44.1703 30.811 38.274C29.3355 32.1429 36.6025 28.1381 40.4389 32.7429C41.1029 33.5387 41.4103 34.4649 41.8407 35.3519L53.4606 35.4302C54.3459 35.8737 54.5303 37.1782 53.7434 37.8304C53.4237 38.0913 53.0917 38.0261 52.7966 38.2609C52.6613 39.6698 53.4728 43.2571 51.1981 42.9832C50.8661 42.9441 50.1529 42.4223 50.1529 42.0961V38.1696H49.1569V40.1003C49.1569 40.1655 48.8618 40.7395 48.788 40.8177C48.3085 41.3526 47.4231 41.3395 46.919 40.8569C46.8452 40.7786 46.5009 40.2568 46.5009 40.2177V38.1696H41.6439L41.6562 38.1827ZM35.5574 33.643C32.5694 34.1779 32.5571 39.2523 35.5574 39.7872C40.402 40.6612 40.3651 32.769 35.5574 33.643Z" fill="white"/>
</svg>
