<svg width="84" height="85" viewBox="0 0 84 85" fill="none" xmlns="http://www.w3.org/2000/svg">
<rect y="0.5" width="84" height="84" rx="8" fill="#EF7B34"/>
<path d="M53.5428 16.2906C62.5823 15.4408 67.3055 26.2013 60.9668 32.6L60.9051 58.0702C57.1191 61.6695 53.3208 65.3313 49.3252 68.7057L28.0769 68.7432C25.7461 68.5557 23.921 66.831 23.625 64.469V24.864C23.921 22.302 25.8201 20.6648 28.3112 20.4773L46.7848 20.4523C48.4003 18.1653 50.7064 16.5531 53.5428 16.2906ZM53.5428 18.1653C45.1446 19.1276 44.972 32.3251 53.7401 33.1249C64.8761 34.1497 64.4938 16.903 53.5428 18.1653ZM45.8229 22.352H28.0769C26.967 22.352 25.4378 23.7892 25.4748 24.989V64.3565C25.4995 65.3813 26.856 66.881 27.8549 66.881H48.1413V57.4453C48.1413 57.2328 48.7826 56.683 49.0046 56.683H59.117V33.9498C57.2055 34.8371 55.294 35.312 53.1729 34.9871C47.3274 34.1122 43.8621 27.9634 45.8229 22.352ZM57.6124 58.5451H49.9788V65.5688L57.6124 58.5451Z" fill="white"/>
<path d="M29.7838 28.4932L44.0243 28.5766C44.398 28.6957 44.514 28.9698 44.5656 29.3035C44.746 30.7692 44.4496 32.5805 44.5398 34.0819C44.3722 34.3322 44.1274 34.6062 43.7794 34.6182L29.5647 34.5586C29.2425 34.4394 29.0234 34.2011 28.9719 33.8794C28.8301 33.069 28.8559 30.2568 28.9719 29.4107C29.0234 28.9579 29.3199 28.6362 29.7838 28.4932ZM42.6196 30.2568H30.905V32.8307H42.6196V30.2568Z" fill="white"/>
<path d="M29.6413 44.2665L54.1335 44.2432C55.379 44.3015 55.49 45.8648 54.2445 45.9932H29.7276C28.5931 45.8648 28.6177 44.5698 29.6413 44.2665Z" fill="white"/>
<path d="M29.6413 48.6532L54.1335 48.6182C55.379 48.7057 55.49 51.0507 54.2445 51.2432H29.7276C28.5931 51.0507 28.6177 49.1082 29.6413 48.6532Z" fill="white"/>
<path d="M54.8426 39.1215C55.4225 39.3723 55.0523 39.8623 54.2504 39.8682H29.7238C28.5147 39.804 28.6381 39.0573 29.8348 38.9932H54.016C54.2751 38.9932 54.6575 39.0398 54.8426 39.1215Z" fill="white"/>
<path d="M29.1376 54.1231C29.3067 53.9725 29.762 53.8682 30.0092 53.8682H46.2442C47.545 54.0072 47.5841 55.4906 46.3612 55.6181H29.775C28.9425 55.6297 28.5912 54.6098 29.1376 54.1231Z" fill="white"/>
<path d="M29.1131 59.4573C29.2857 59.303 29.6926 59.2368 29.9392 59.2148C33.7615 58.9062 38.1016 59.4573 41.9732 59.2148C43.1446 59.314 43.2062 60.7469 41.9732 60.8682H29.7173C28.9528 60.8682 28.6076 59.9092 29.1131 59.4463V59.4573Z" fill="white"/>
<path d="M52.4225 21.5087C52.5189 21.4952 52.6032 21.4818 52.6996 21.5087C53.2054 21.6162 54.9277 24.008 55.0963 24.008C55.9153 23.4033 57.3967 20.474 58.4325 21.9252C59.2756 23.1211 56.9391 24.5589 56.3971 25.4592C56.9029 26.3326 59.4201 27.9182 58.3723 29.0603C57.3245 30.2025 55.9755 27.4613 55.1927 26.9238C54.723 26.8298 52.6875 30.7131 51.7601 28.8722C51.1338 27.636 53.2656 26.3595 53.7956 25.4457C53.8437 25.1098 51.8083 23.3764 51.6758 22.9196C51.4952 22.2746 51.8083 21.6027 52.4225 21.5221V21.5087Z" fill="white"/>
</svg>
