<svg width="84" height="85" viewBox="0 0 84 85" fill="none" xmlns="http://www.w3.org/2000/svg">
<rect y="0.833252" width="84" height="84" rx="8" fill="#EF7B34"/>
<path d="M38.302 70.9474C36.7172 70.8081 34.8001 69.9343 33.5604 68.9718C28.5505 65.0714 28.8316 57.0047 34.4167 53.7881L24.0006 25.6242C23.745 25.1683 20.3326 23.5347 19.5913 22.9648C18.0577 21.7618 19.2463 19.5203 21.2911 20.4954C22.4158 21.0273 24.9847 22.4836 25.9432 23.2055C26.1349 23.3448 26.3139 23.4967 26.4289 23.712L37.2028 52.7497L38.8899 52.6611L30.1097 28.5622C30.1097 27.7897 30.5825 27.2325 31.2983 26.9919L46.8265 21.3946C47.6189 21.3059 48.079 21.5845 48.5008 22.2177L52.2838 32.4626C53.7663 32.2979 56.4375 30.1831 57.5366 31.8674L63.4923 47.8236C63.6712 48.5707 63.6073 49.1659 62.9555 49.6345L45.7785 55.9283C45.983 56.1816 46.5837 57.296 46.8265 57.3213L66.7385 50.1283C68.5789 49.5711 69.6269 52.0152 67.8632 52.9143L47.7979 60.1959C48.6158 64.3749 46.4176 68.8325 42.3406 70.3775C41.7527 70.6054 40.7047 70.9094 40.0912 70.9727C39.6184 71.0233 38.7621 71.0107 38.2892 70.9727L38.302 70.9474ZM49.4977 33.5643L46.1492 24.7757L33.6115 29.322L36.8066 38.1106L49.4849 33.5643H49.4977ZM56.9743 39.0857L55.3383 34.5521L37.9058 41.0232L39.4139 45.1642L39.6311 45.3162L56.9743 39.0857ZM40.6152 48.1148L42.4301 53.2816L43.1585 53.7375L60.1694 47.469L58.0478 41.897L40.628 48.1275L40.6152 48.1148ZM38.1869 55.6497C30.6081 56.3842 31.8095 68.2753 39.4522 67.9841C47.0949 67.6928 46.277 54.8645 38.1869 55.6497Z" fill="white"/>
<path d="M38.0744 57.9132C43.5062 57.2971 44.2536 65.7433 38.675 65.7561C33.6836 65.7561 33.1498 58.478 38.0744 57.9132ZM38.4881 60.9297C37.3671 60.9811 37.6207 63.0734 38.9686 62.6883C39.7827 62.4572 39.4491 60.8912 38.4881 60.9297Z" fill="white"/>
</svg>
