<svg width="84" height="85" viewBox="0 0 84 85" fill="none" xmlns="http://www.w3.org/2000/svg">
<rect y="0.5" width="84" height="84" rx="8" fill="#EF7B34"/>
<path d="M0 0 C4.10369547 0.01120482 8.20733612 -0.00086394 12.311028 -0.00984204 C20.33006792 -0.02371236 28.34894942 -0.01626447 36.36798167 -0.00116646 C45.72324586 0.01577085 55.07847143 0.01247367 64.43374622 0.00873946 C81.13561897 0.00287224 97.83741614 0.01698764 114.53926897 0.04168689 C130.714428 0.06560428 146.88948606 0.07268966 163.0646596 0.06219471 C180.7145004 0.05076331 198.36429462 0.04888283 216.01413488 0.0632928 C217.89923207 0.0648185 219.78432925 0.06633886 221.66942644 0.06785381 C223.06037355 0.06899053 223.06037355 0.06899053 224.4794206 0.07015022 C230.9873227 0.0748759 237.49520387 0.07305383 244.00310564 0.06878841 C251.94329029 0.06384145 259.88337985 0.06993604 267.82354283 0.08968271 C271.86811395 0.09949633 275.91254085 0.10472466 279.95711946 0.09679019 C283.67060921 0.08965475 287.38380997 0.09671821 291.09726202 0.11439382 C293.05308471 0.1202577 295.00893495 0.11169393 296.96474409 0.10234731 C321.43209525 0.27452249 344.21237031 9.40336889 362.42696428 25.88323963 C363.21071428 26.74948963 363.99446428 27.61573963 364.80196428 28.50823963 C365.45422991 29.17984119 366.10649553 29.85144275 366.77852678 30.54339588 C376.23180682 40.53268664 382.75454651 51.6925139 388.30977678 64.16839588 C389.47079727 66.76701502 390.67914425 69.296596 391.98946428 71.82073963 C397.80196428 83.2947656 397.80196428 83.2947656 397.80196428 88.50823963 C398.46196428 88.50823963 399.12196428 88.50823963 399.80196428 88.50823963 C400.10489397 89.34226306 400.40782366 90.1762865 400.71993303 91.03558338 C402.95248116 97.0325511 405.30002532 102.60872063 408.54415178 108.11761463 C410.62993658 112.08190127 412.07622167 116.28369303 413.59102678 120.49261463 C414.75878354 123.40070564 416.18499325 125.83243985 417.80196428 128.50823963 C418.53301718 130.18095345 419.26198684 131.85477976 419.96260881 133.54046619 C421.59911971 137.37707987 423.43959786 141.12124838 425.23946428 144.88323963 C429.32388025 153.42400826 433.20515789 162.02989053 436.87227678 170.75823963 C437.68140561 172.68965617 437.68140561 172.68965617 439.80196428 173.50823963 C440.09587053 172.53370838 440.09587053 172.53370838 440.39571428 171.53948963 C442.41031897 167.19689729 445.32351843 163.73423852 448.30196428 160.00823963 C449.57605299 158.39938011 450.84948638 156.79000144 452.12227678 155.18011463 C452.74908342 154.38927478 453.37589006 153.59843494 454.02169085 152.78363025 C455.60434521 150.76081913 457.14753299 148.71774187 458.66915178 146.64886463 C464.28962219 139.02207538 469.59679704 132.59922362 478.80196428 129.50823963 C487.43451991 128.21450118 493.47934854 129.46373652 500.55587053 134.57855213 C503.35251822 136.98123727 505.15093051 139.20617208 506.80196428 142.50823963 C507.66821428 144.11698963 507.66821428 144.11698963 508.55196428 145.75823963 C510.97141572 153.01659395 510.61027505 158.48527875 507.36446428 165.44573963 C504.58273471 170.54450149 501.2853319 174.84477697 497.50899553 179.23870838 C493.28300321 184.22864875 489.52517224 189.59126288 485.67501116 194.87176502 C485.10202288 195.65672351 484.5290346 196.44168201 483.93868303 197.25042713 C483.39767962 197.99413562 482.8566762 198.73784412 482.29927874 199.50408924 C481.05230139 201.17316425 479.72872341 202.78466687 478.38790178 204.37933338 C476.49320458 206.49198594 476.49320458 206.49198594 476.73946428 209.69573963 C477.63955202 212.92546621 478.61074576 215.16680862 480.17696428 218.07073963 C490.23721823 237.34560299 485.56710654 262.29937627 482.82540178 282.95355213 C481.54582633 292.77155585 480.94377057 302.63184867 480.30196428 312.50823963 C478.98624168 332.75514443 478.98624168 332.75514443 477.76680803 341.88323963 C476.7661506 349.41715431 476.26588333 356.9218056 475.86446428 364.50823963 C475.21268188 375.94537077 474.36447949 387.35192062 473.30196428 398.75823963 C473.1834511 400.05890369 473.06493792 401.35956775 472.94283342 402.69964588 C470.44056079 428.87413108 470.44056079 428.87413108 461.80196428 436.50823963 C455.93600723 440.73172871 451.95260716 441.65474868 444.85274553 441.60589588 C444.0801288 441.60448093 443.30751207 441.60306598 442.51148272 441.60160816 C440.04577039 441.59601429 437.58014913 441.58346295 435.11446428 441.57073963 C433.44193955 441.56572383 431.7694134 441.56116106 430.09688616 441.55706775 C425.99854382 441.54604687 421.90026949 441.52878647 417.80196428 441.50823963 C417.81306734 442.28783039 417.8241704 443.06742115 417.83560991 443.87063587 C417.9362281 451.2549697 418.01213833 458.63896632 418.06102514 466.02380931 C418.08700444 469.81953791 418.12218435 473.6146952 418.17916155 477.4100951 C418.23390437 481.08005923 418.26347232 484.74947752 418.2763505 488.41981876 C418.28551544 489.81276646 418.3034109 491.2056878 418.33061457 492.5984 C418.5101149 502.17811607 417.72642614 510.07673075 411.07535601 517.41262805 C403.39163549 524.84062624 394.379525 524.97534351 384.24727678 524.97698963 C382.9505504 524.98460315 381.65382402 524.99221668 380.31780291 525.00006092 C377.58278009 525.01344494 374.84804565 525.01510234 372.11299944 525.00921619 C368.63406545 525.00332692 365.15653034 525.03390488 361.67786646 525.07433307 C358.32596275 525.10662999 354.97433503 525.10209361 351.62227678 525.10198963 C350.38655931 525.11838489 349.15084185 525.13478015 347.87767839 525.15167224 C339.00686662 525.08139995 331.7674364 523.5181962 325.36446428 517.04339588 C324.84883928 516.22741931 324.33321428 515.41144275 323.80196428 514.57073963 C323.26571428 513.75734119 322.72946428 512.94394275 322.17696428 512.10589588 C311.31099782 491.57786264 318.80196428 465.73471968 318.80196428 442.50823963 C201.32196428 442.50823963 83.84196428 442.50823963 -37.19803572 442.50823963 C-37.19803572 462.63823963 -37.19803572 482.76823963 -37.19803572 503.50823963 C-41.41382901 514.04772287 -44.40430333 519.2769941 -54.4152751 523.63519275 C-59.86071606 525.34361323 -65.44397078 525.09693397 -71.10428572 525.07464588 C-72.42416487 525.08084445 -73.74404402 525.08704303 -75.10391951 525.09342945 C-77.8843313 525.10377917 -80.66422956 525.0993509 -83.44461775 525.08465564 C-86.98532132 525.06746134 -90.52440283 525.09099621 -94.06492567 525.12614524 C-97.4739711 525.15354172 -100.88263569 525.14337578 -104.29178572 525.13714588 C-105.5514012 525.15040409 -106.81101667 525.1636623 -108.10880232 525.17732227 C-117.38740996 525.07972577 -123.09626876 523.0749935 -130.07303572 517.00823963 C-135.05713924 511.14458842 -136.32649535 506.76573426 -136.31156111 499.17913806 C-136.31144781 497.25759906 -136.31144781 497.25759906 -136.31133223 495.29724109 C-136.30622598 493.90403187 -136.30100999 492.51082305 -136.29569197 491.11761463 C-136.29382604 489.68843626 -136.29240296 488.25925725 -136.29140425 486.83007801 C-136.28759287 483.07523815 -136.27777439 479.3204372 -136.26670027 475.56561267 C-136.25645647 471.73138951 -136.25190027 467.89716004 -136.24686384 464.06292713 C-136.23615085 456.54468026 -136.21909103 449.0264654 -136.19803572 441.50823963 C-137.16104597 441.52918689 -138.12405622 441.55013416 -139.11624861 441.57171619 C-142.71489084 441.64452905 -146.31346895 441.6901876 -149.91263533 441.72796619 C-151.46548137 441.74798833 -153.0182529 441.7752148 -154.57083845 441.80999744 C-156.81264404 441.85893573 -159.05344665 441.88130131 -161.29569197 441.89886463 C-161.98139769 441.91950977 -162.6671034 441.94015491 -163.37358809 441.96142566 C-169.64915413 441.96429771 -173.65047532 439.75386694 -178.30741072 435.64886463 C-179.11952009 434.71300525 -179.11952009 434.71300525 -179.94803572 433.75823963 C-180.77561384 432.837849 -180.77561384 432.837849 -181.61991072 431.89886463 C-185.42156882 426.13991721 -186.68577155 419.9976204 -187.29569197 413.25823963 C-187.37352415 412.48447986 -187.45135633 411.7107201 -187.53154707 410.91351306 C-188.33447422 402.66893665 -188.90947215 394.4058778 -189.45954084 386.14123523 C-190.4241347 371.71029565 -191.49327284 357.2907993 -192.76053572 342.88323963 C-192.81861403 342.21115467 -192.87669233 341.53906971 -192.93653059 340.84661853 C-193.5658905 333.59502994 -194.31709189 326.37417778 -195.25272322 319.15667713 C-196.00398821 313.35831671 -196.54195511 307.60127236 -196.76053572 301.75823963 C-196.92972361 297.55374058 -197.17357842 293.59706479 -198.19803572 289.50823963 C-198.37857776 286.79724324 -198.52241646 284.09694462 -198.63553572 281.38323963 C-198.89384632 275.86443084 -199.28088327 270.41047492 -199.98319197 264.92987049 C-202.76738692 243.12932993 -203.06858764 223.78318482 -189.19803572 205.50823963 C-188.22282722 204.48404805 -187.23190399 203.47318335 -186.19803572 202.50823963 C-187.57154207 198.5363991 -189.37391818 195.77903135 -192.07303572 192.57073963 C-192.8709654 191.61296619 -193.66889509 190.65519275 -194.49100447 189.66839588 C-196.38244201 187.44238967 -198.30777653 185.24966432 -200.24881697 183.06683338 C-209.28713423 172.86600442 -216.42134136 164.59189017 -215.86209822 150.18402088 C-214.80468352 144.33091952 -212.09617851 139.94060327 -208.19803572 135.50823963 C-205.19803572 133.50823963 -205.19803572 133.50823963 -202.19803572 133.50823963 C-202.19803572 132.84823963 -202.19803572 132.18823963 -202.19803572 131.50823963 C-195.20752529 128.56486682 -188.28089097 128.51209608 -181.13553572 130.94573963 C-168.97415504 136.3698296 -160.86761491 150.10782542 -153.19803572 160.50823963 C-150.76979794 157.53574166 -149.33665008 154.70256529 -147.94803572 151.13323963 C-146.05048896 146.43236851 -143.94492775 141.89316553 -141.63553572 137.38323963 C-139.23609796 132.68192297 -137.10242884 127.96292553 -135.20975447 123.03558338 C-133.59929287 119.01253838 -131.73061442 115.113257 -129.89725447 111.18792713 C-127.96321401 107.02739829 -126.11385518 102.8301888 -124.26053572 98.63323963 C-121.54885481 92.50198097 -118.77885538 86.40599087 -115.91532087 80.34393299 C-114.22051809 76.74259655 -112.57694768 73.12303329 -110.97147322 69.48089588 C-98.86580059 42.04238768 -81.71607687 18.52660101 -52.94803572 6.82073963 C-50.70183307 6.03890991 -48.45137146 5.26926661 -46.19803572 4.50823963 C-45.20359953 4.15078631 -44.20916334 3.79333299 -43.18459272 3.42504776 C-29.1591168 -0.85960584 -14.51347507 -0.05524312 0 0 Z " fill="#030303" transform="translate(348.1980357170105,322.49176037311554)"/>
<path d="M0 0 C1.47210473 -0.00269434 2.94420808 -0.00626271 4.41630882 -0.01062447 C8.47111284 -0.02008686 12.52582707 -0.0170804 16.58063552 -0.01206893 C20.98839148 -0.00880491 25.39612813 -0.01708265 29.80387795 -0.02388728 C37.5322698 -0.03420145 45.2606366 -0.03702861 52.98903465 -0.03497505 C64.48139071 -0.03192878 75.97371898 -0.0402407 87.46606964 -0.0507243 C109.18377316 -0.07008181 130.90146726 -0.07569316 152.6191784 -0.07683842 C169.38714929 -0.07775689 186.15511648 -0.08187035 202.92308617 -0.08823967 C207.7466555 -0.0900347 212.57022484 -0.09181433 217.39379418 -0.09358943 C218.59288304 -0.09403152 219.79197191 -0.09447362 221.0273968 -0.09492911 C254.76216575 -0.10724002 288.49693342 -0.11512998 322.23170471 -0.11424255 C324.14011083 -0.11419582 324.14011083 -0.11419582 326.08707061 -0.11414814 C332.53573554 -0.11398192 338.98440047 -0.11378383 345.4330654 -0.11357872 C346.71383636 -0.11353883 347.99460732 -0.11349894 349.31418951 -0.11345784 C351.90422041 -0.11337697 354.4942513 -0.11329337 357.0842822 -0.11320706 C397.39179991 -0.11198122 437.69928398 -0.12699977 478.00679207 -0.15435219 C523.2720053 -0.18505607 568.53719643 -0.20228574 613.80242074 -0.20042574 C618.62661878 -0.20027648 623.45081683 -0.20017907 628.27501488 -0.20011711 C630.05683053 -0.20008215 630.05683053 -0.20008215 631.87464246 -0.20004648 C651.01124825 -0.19998487 670.14782489 -0.21277001 689.284422 -0.22998164 C708.50761672 -0.24691392 727.73076868 -0.24893082 746.95396672 -0.235763 C758.38101979 -0.22835802 769.8079432 -0.23207795 781.2349826 -0.25164768 C788.86317547 -0.26361029 796.49127402 -0.26109818 804.11946248 -0.24670668 C808.46890455 -0.23891221 812.81809495 -0.23748197 817.16751967 -0.25362138 C821.12464444 -0.26817686 825.08130793 -0.26430969 829.03841215 -0.24577365 C830.46071234 -0.24233196 831.88304864 -0.24558492 833.30531206 -0.25637607 C843.26023311 -0.32684618 851.36576676 0.732119 859.04536629 7.50726891 C859.6602491 8.02805016 860.27513191 8.54883141 860.90864754 9.08539391 C866.91293334 16.23396544 867.30868519 22.68217031 867.23343754 31.68245506 C867.24170879 33.55160546 867.24170879 33.55160546 867.25014713 35.45851648 C867.2648787 38.91622219 867.2547468 42.37347424 867.24053514 45.8311656 C867.22948136 49.59325625 867.24164384 53.35528391 867.25084263 57.11736965 C867.26375184 63.71055748 867.26178011 70.30361094 867.25006294 76.89679909 C867.23268695 86.70102216 867.23817723 96.50513946 867.24822985 106.30936798 C867.26543022 123.81894115 867.25987567 141.32845175 867.24487267 158.83802363 C867.23182778 174.16081176 867.22662359 189.48357816 867.22919083 204.80637169 C867.22943145 206.33017312 867.22943145 206.33017312 867.22967693 207.88475842 C867.23034051 212.00835731 867.23104292 216.13195619 867.23180227 220.25555507 C867.23882846 258.94866237 867.22332785 297.64173142 867.19717882 336.33482899 C867.17406327 370.72142253 867.16867535 405.10797403 867.17891121 439.49457359 C867.18151316 448.29957134 867.18409815 457.10456908 867.18650913 465.90956688 C867.18680658 466.99352058 867.18710403 468.07747428 867.18741049 469.19427506 C867.19502307 497.91609655 867.18861528 526.63791458 867.17781311 555.35973454 C867.17666529 558.44974949 867.17552211 561.53976444 867.17438629 564.62977939 C867.17363104 566.67966696 867.17286539 568.72955452 867.17208928 570.77944208 C867.1664276 586.09367939 867.16776317 601.40790582 867.1723175 616.72214317 C867.17742165 634.13277583 867.17158862 651.54336774 867.15142321 668.95399022 C867.14042419 678.70156734 867.13765542 688.44906438 867.14671174 698.19664397 C867.15192265 704.70404292 867.14625567 711.2113732 867.13165839 717.71875773 C867.12363729 721.42882351 867.12036111 725.13872718 867.13023096 728.8487922 C867.14073694 732.84336306 867.12812107 736.83752617 867.11318302 740.83208275 C867.1232895 742.56351275 867.1232895 742.56351275 867.13360015 744.32992113 C867.06159911 754.23121679 864.93785877 760.94235487 858.04146004 768.26898766 C853.32413255 772.33179594 847.8172242 774.3782134 841.60786629 774.69476891 C834.87581023 773.93469806 828.94096763 771.67283309 823.73286629 767.25726891 C819.53679532 761.37097732 816.60715155 756.20230258 816.60866779 748.89402127 C816.60642049 748.020723 816.60417318 747.14742472 816.60185778 746.24766286 C816.60579831 744.81223229 816.60579831 744.81223229 816.60981846 743.34780312 C816.60866471 742.32472519 816.60751097 741.30164727 816.60632226 740.24756698 C816.60365949 736.79304156 816.60817403 733.338562 816.61261177 729.88403893 C816.6121746 727.39936372 816.61129816 724.91468857 816.61001778 722.43001366 C816.60823844 717.00642517 816.60959272 711.5828511 816.61365116 706.15926409 C816.61974432 697.98977141 816.62002177 689.8202854 816.61918586 681.65079086 C816.61794268 667.96124485 816.62124176 654.27170363 816.62729073 640.58215904 C816.63545535 622.07200511 816.63739315 603.56185939 816.6382618 585.0517025 C816.64351701 540.53689033 816.65747806 496.02207952 816.67036629 451.50726891 C816.70130379 302.38851891 816.70130379 302.38851891 816.73286629 150.25726891 C552.07286629 150.25726891 287.41286629 150.25726891 14.73286629 150.25726891 C14.81209615 348.34516493 14.81209615 348.34516493 14.91304207 546.43305016 C14.92207527 584.67328453 14.92207527 584.67328453 14.92375374 602.55341148 C14.92574654 615.91563889 14.93438356 629.27784616 14.94621314 642.64006791 C14.9581078 656.25950766 14.96254216 669.87893466 14.95975619 683.49837941 C14.95831911 691.60032545 14.96231982 699.7022241 14.97448148 707.80416139 C14.98284178 713.7779497 14.98081258 719.75168611 14.9746685 725.72547913 C14.97381733 728.1460489 14.97638033 730.56662267 14.98263144 732.98718452 C14.99063031 736.27674045 14.98634801 739.56605967 14.97896194 742.8556118 C14.98421599 743.80205742 14.98947004 744.74850303 14.99488331 745.72362882 C14.96679206 751.23791485 14.28948218 755.96130983 12.73286629 761.25726891 C12.07286629 761.25726891 11.41286629 761.25726891 10.73286629 761.25726891 C10.39255379 762.09258141 10.39255379 762.09258141 10.04536629 762.94476891 C6.29083517 769.55989516 0.79776362 772.22787443 -6.26713371 774.25726891 C-12.77629462 775.47084128 -18.53139403 773.28859247 -24.26713371 770.25726891 C-29.74132034 765.8541188 -32.98868813 759.85381938 -35.26713371 753.25726891 C-35.51931205 750.70819273 -35.51931205 750.70819273 -35.52243471 747.94250429 C-35.52846665 746.88195807 -35.53449859 745.82141186 -35.54071331 744.72872788 C-35.53717437 743.56741771 -35.53363543 742.40610755 -35.52998924 741.20960617 C-35.53409451 739.96786623 -35.53819978 738.72612628 -35.54242945 737.44675785 C-35.55181644 733.98736028 -35.55221704 730.52816989 -35.54887427 727.06877488 C-35.54741324 723.30993687 -35.55745519 719.5511269 -35.5660243 715.79230082 C-35.5811937 708.33143661 -35.5855709 700.87060101 -35.58668241 693.40972299 C-35.58850877 684.47539799 -35.60184108 675.54109952 -35.61537606 666.60678593 C-35.6475101 645.01177193 -35.65930409 623.41676074 -35.66887356 601.82172713 C-35.67354392 591.60787358 -35.68074904 581.39402228 -35.68826431 571.18017049 C-35.71393621 536.2239155 -35.7353748 501.26766177 -35.74226952 466.31139755 C-35.74271278 464.11666637 -35.74315635 461.92193519 -35.74360022 459.727204 C-35.7440415 457.52714211 -35.74448247 455.32708022 -35.74492311 453.12701833 C-35.74580823 448.71324118 -35.74670245 444.29946403 -35.74760246 439.88568687 C-35.74782124 438.79132512 -35.74804003 437.69696336 -35.74826544 436.56943913 C-35.75552778 401.07937617 -35.78737195 365.58939489 -35.83398319 330.09936322 C-35.88316189 292.5859309 -35.91061435 255.07254527 -35.91300535 217.55907977 C-35.91334827 213.44199283 -35.91377912 209.32490591 -35.91427422 205.20781898 C-35.91444152 203.68718154 -35.91444152 203.68718154 -35.91461221 202.13582414 C-35.91691463 185.81315375 -35.93897047 169.49056709 -35.96804833 153.16792498 C-35.99676398 136.76511734 -36.00326042 120.36241719 -35.98716837 103.95959131 C-35.9782491 94.21255553 -35.98600325 84.46586641 -36.01764538 74.71887609 C-36.03712799 68.20791825 -36.03480547 61.69720358 -36.01477293 55.18624802 C-36.00397598 51.47640215 -36.00260735 47.76722249 -36.02779037 44.0574315 C-36.05471438 40.05776775 -36.03506776 36.05966006 -36.01100731 32.05997849 C-36.0261977 30.91271532 -36.04138808 29.76545215 -36.05703878 28.58342344 C-35.94369981 19.87365871 -33.57752989 12.46880107 -27.21339884 6.25063886 C-19.03371189 -0.50526133 -10.1392893 -0.03193147 0 0 Z " fill="#030303" transform="translate(74.26713371276855,102.74273109436035)"/>
<path d="M0 0 C0.97309814 -0.00666801 1.94619628 -0.01333602 2.94878224 -0.02020609 C6.22936 -0.03652701 9.50875899 -0.01701941 12.78930759 0.00215912 C15.15698697 -0.00216723 17.52466319 -0.0086808 19.89233118 -0.01720095 C25.05027995 -0.03068652 30.20798215 -0.02855962 35.36591434 -0.01278305 C43.03586782 0.01061259 50.7056157 0.00544331 58.37558751 -0.00549195 C72.07315168 -0.02409477 85.77058597 -0.01435246 99.46813956 0.00698569 C111.45556181 0.02552824 123.4429404 0.03396558 135.43037701 0.0324173 C136.22492561 0.03232562 137.01947422 0.03223395 137.83810005 0.03213949 C141.0632838 0.03174635 144.28846754 0.03129673 147.51365127 0.0307681 C177.78162536 0.02589466 208.04952196 0.04857448 238.31747196 0.08472433 C265.21830191 0.11671561 292.11906565 0.12876857 319.01991367 0.12264252 C320.7470141 0.12225567 322.47411453 0.12186922 324.20121496 0.12148315 C325.48197293 0.12119613 325.48197293 0.12119613 326.7886048 0.12090331 C331.08657077 0.119949 335.38453675 0.11903463 339.68250275 0.11816406 C340.53039521 0.11799027 341.37828767 0.11781647 342.25187385 0.11763741 C364.71827145 0.11328358 387.1846619 0.12329376 409.65105444 0.13800192 C410.84965308 0.13878213 410.84965308 0.13878213 412.07246582 0.13957811 C412.87008669 0.14009745 413.66770756 0.14061679 414.48949875 0.14115188 C415.68376246 0.14192849 415.68376246 0.14192849 416.90215272 0.14272078 C418.50560356 0.14376888 420.10905439 0.14482909 421.71250522 0.1459015 C432.89846192 0.15328687 444.08440849 0.15536944 455.27036732 0.1539075 C469.68532845 0.15206296 484.10022718 0.16010795 498.51516788 0.18554896 C506.14134989 0.19872786 513.76743227 0.20371679 521.39362323 0.19691042 C527.08105706 0.19277096 532.76837204 0.20426532 538.4557758 0.221986 C540.76190411 0.22674275 543.06804945 0.2264043 545.3741753 0.22057563 C548.49914808 0.21343801 551.62353093 0.2246062 554.74845886 0.24050903 C556.10401331 0.23083133 556.10401331 0.23083133 557.48695269 0.22095811 C562.5114668 0.26923652 566.13974618 0.71393411 570.43715 3.62361908 C573.38859342 12.47794934 571.21926676 23.67673743 570.59730625 32.85018158 C570.51089375 34.16022156 570.42448124 35.47026154 570.33545017 36.81999969 C570.1539306 39.56477892 569.96955845 42.30934705 569.78309727 45.05379486 C569.54426916 48.57283708 569.31303383 52.0923324 569.0838871 55.61201668 C568.86332481 58.98335102 568.63627519 62.35423881 568.40980625 65.72518158 C568.32747242 66.98964111 568.24513859 68.25410065 568.16030979 69.55687714 C568.08030231 70.71923889 568.00029484 71.88160065 567.91786289 73.07918549 C567.84902393 74.10444336 567.78018497 75.12970123 567.70925999 76.18602753 C567.43715 78.62361908 567.43715 78.62361908 566.43715 80.62361908 C566.27085785 82.85008622 566.15687967 85.08046103 566.06215 87.31111908 C565.59228478 96.81934933 564.63497445 106.27079358 563.62904453 115.73567963 C562.13588079 130.35761661 561.38609279 144.91500593 560.43715 159.62361908 C374.97715 159.62361908 189.51715 159.62361908 -1.56285 159.62361908 C-2.75349396 151.8844333 -3.86966161 144.48476177 -4.3441 136.72908783 C-4.40311489 135.85319504 -4.46212978 134.97730225 -4.52293301 134.07486725 C-4.70818842 131.32060296 -4.886342 128.56595673 -5.06285 125.81111908 C-5.77805902 114.71355764 -6.60854879 103.71709142 -8.07652187 92.69124603 C-9.19190366 83.85173637 -9.63015186 74.92694624 -10.24009609 66.04158783 C-10.83705775 57.41917174 -11.46220558 48.83077954 -12.59800625 40.26033783 C-13.55286402 32.98971265 -14.15398699 25.75981885 -14.50035 18.43611908 C-14.5809164 17.26242767 -14.66148281 16.08873627 -14.74449062 14.87947845 C-14.79669765 13.74961517 -14.84890469 12.61975189 -14.90269375 11.45565033 C-14.95804287 10.45251801 -15.01339199 9.44938568 -15.07041836 8.41585541 C-13.56159998 0.11553995 -6.94534951 -0.0941143 0 0 Z " fill="#FDFDFD" transform="translate(211.56284999847412,555.3763809204102)"/>
<path d="M0 0 C1.34915158 -0.00445762 2.69830054 -0.00977338 4.04744571 -0.01586872 C7.74014829 -0.02999665 11.43276649 -0.03171301 15.12549222 -0.03127182 C19.11410506 -0.03292466 23.10268361 -0.04599996 27.09127808 -0.0574646 C35.80640913 -0.08027851 44.52151577 -0.08823146 53.23667264 -0.09329104 C58.68358232 -0.09655254 64.13048497 -0.10307779 69.57739067 -0.11029243 C84.67302122 -0.12985436 99.76864524 -0.14626072 114.86428928 -0.14916897 C115.82961138 -0.14935654 116.79493347 -0.14954411 117.78950774 -0.14973736 C119.74626124 -0.1501036 121.70301473 -0.1504673 123.65976823 -0.15082847 C124.6310387 -0.15101128 125.60230917 -0.1511941 126.60301208 -0.15138245 C128.06170655 -0.15165327 128.06170655 -0.15165327 129.54986959 -0.15192956 C145.29821394 -0.15546928 161.04642138 -0.18248083 176.79471827 -0.21988034 C192.98247892 -0.25801424 209.17017174 -0.27732682 225.35797828 -0.27762848 C234.43907431 -0.27821194 243.52000703 -0.28663162 252.60106087 -0.31562614 C260.33544826 -0.34020822 268.0696128 -0.34737711 275.80402876 -0.33237862 C279.74524934 -0.32523727 283.6860305 -0.32594595 287.62720108 -0.34878922 C291.24550328 -0.36955883 294.86303325 -0.3666144 298.48132872 -0.34591437 C300.38859664 -0.34083204 302.29588346 -0.36006031 304.20304781 -0.38057607 C318.53037125 -0.24326969 330.4187278 4.03941386 340.68675232 14.27415466 C341.36866638 14.9328656 342.05058044 15.59157654 342.75315857 16.27024841 C352.22124405 26.69470617 357.26470064 41.447972 362.68675232 54.27415466 C366.08655752 62.03748936 369.58296994 69.760484 373.16331482 77.44212341 C375.5750795 82.61814146 377.923483 87.79120916 380.06175232 93.08665466 C382.31312001 98.57075545 384.91224954 103.82694168 387.58665466 109.11204529 C390.01202696 113.9098894 392.38599157 118.72770954 394.68675232 123.58665466 C394.98952087 124.21483093 395.29228943 124.8430072 395.60423279 125.49021912 C396.91982071 128.29076244 397.68675232 130.13693426 397.68675232 133.27415466 C234.66675232 133.27415466 71.64675232 133.27415466 -96.31324768 133.27415466 C-93.25442415 124.09768407 -93.25442415 124.09768407 -90.31324768 119.27415466 C-89.71751197 117.83312788 -89.14502701 116.38242204 -88.58668518 114.92649841 C-86.08824201 108.59722337 -83.24217869 102.44360167 -80.37574768 96.27415466 C-79.60714417 94.60739685 -79.60714417 94.60739685 -78.82301331 92.90696716 C-76.11362048 87.05440324 -73.34127971 81.24865026 -70.39527893 75.51121521 C-69.21824762 73.07774546 -68.22256837 70.60845208 -67.25074768 68.08665466 C-65.90113053 64.59924395 -64.3159942 61.51526512 -62.37574768 58.30931091 C-60.9559852 55.58983939 -59.94204273 52.77481913 -58.87574768 49.89915466 C-57.09671276 45.12413763 -55.07470518 40.82877464 -52.48902893 36.44993591 C-51.22551588 34.11180712 -50.34010778 31.77249902 -49.43824768 29.27415466 C-44.89677689 17.58574777 -35.06033461 8.70606383 -23.96559143 3.28196716 C-15.90121012 0.2177398 -8.55865987 -0.01663309 0 0 Z " fill="#FDFDFD" transform="translate(337.31324768066406,372.72584533691406)"/>
<path d="M0 0 C264.66 0 529.32 0 802 0 C802 16.83 802 33.66 802 51 C537.34 51 272.68 51 0 51 C0 34.17 0 17.34 0 0 Z " fill="#F9F9F9" transform="translate(89,153)"/>
<path d="M0 0 C0.75519928 -0.00671722 1.51039856 -0.01343445 2.28848267 -0.02035522 C4.77808267 -0.03930664 7.26741248 -0.04325848 9.75708008 -0.04541016 C11.49717823 -0.05184197 13.23727531 -0.05857062 14.97737122 -0.06558228 C18.62475081 -0.07754927 22.27203576 -0.08126389 25.91943359 -0.08007812 C30.57184064 -0.07987541 35.22363362 -0.10713116 39.8758955 -0.14162254 C43.47150912 -0.16396911 47.06697704 -0.16791324 50.66265297 -0.16685867 C52.37650981 -0.16920475 54.09037128 -0.17797179 55.80415916 -0.19352341 C66.11652308 -0.27831194 75.5537816 -0.31221293 83.99536133 6.40380859 C89.68656915 13.19226199 91.85843516 18.83452176 91.65551758 27.73583984 C90.63078605 36.00959812 85.79695914 42.17003053 79.77661133 47.60302734 C75.31776279 50.68992249 70.87630171 50.45251633 65.59228516 50.48339844 C64.42803513 50.49566467 64.42803513 50.49566467 63.24026489 50.50817871 C60.67556515 50.53295781 58.11092055 50.54953105 55.54614258 50.56396484 C54.66740667 50.56928852 53.78867077 50.5746122 52.8833065 50.5800972 C48.23048145 50.6067985 43.57768293 50.62618153 38.92480469 50.640625 C35.08471797 50.65395186 31.24516419 50.68178548 27.40527344 50.72265625 C22.75810376 50.77211184 18.11141655 50.7967618 13.46399498 50.80385208 C11.69903989 50.81054232 9.93409463 50.82570604 8.16929054 50.84974289 C-10.69712838 51.0920115 -10.69712838 51.0920115 -18.48283386 43.51815796 C-24.09380594 37.5022715 -26.13949523 32.18288135 -25.88354492 23.97021484 C-25.13976892 15.01880536 -21.15295637 9.29528183 -14.53979492 3.58740234 C-9.90306462 0.38699806 -5.5028021 -0.00707437 0 0 Z " fill="#040404" transform="translate(277.660888671875,609.70947265625)"/>
<path d="M0 0 C0.75198669 -0.00992981 1.50397339 -0.01985962 2.27874756 -0.03009033 C4.75870483 -0.05921854 7.23840582 -0.07292155 9.71850586 -0.08398438 C10.57051512 -0.08963913 11.42252438 -0.09529388 12.3003521 -0.10112 C16.8140168 -0.13106741 21.3275544 -0.14954609 25.84130859 -0.15820312 C30.47584844 -0.16913412 35.10920161 -0.21711471 39.74337101 -0.27414703 C43.33049253 -0.31164246 46.91733594 -0.3218239 50.50463676 -0.32487488 C52.21130255 -0.33088015 53.91796629 -0.34677375 55.62443733 -0.37324524 C66.06244305 -0.523535 74.5382256 -0.02896794 83.37084961 6.32226562 C88.8077454 11.82266056 91.38793382 17.44555534 91.68334961 25.19726562 C91.49849404 32.45012809 89.34950449 38.34519079 84.25939941 43.61270142 C75.58785254 51.4624103 65.4659631 51.06222723 54.46459961 50.98632812 C52.73164531 50.9897034 50.99869334 50.99456191 49.26574707 51.00082397 C45.64804364 51.00816188 42.03096088 50.9975903 38.41333008 50.97412109 C33.80005222 50.94563465 29.18822919 50.96205534 24.57500458 50.99198341 C21.00076541 51.01014048 17.42686532 51.00426013 13.85261536 50.99134445 C12.15273359 50.9880336 10.45282 50.99201488 8.75297546 51.00374222 C-2.18356579 51.06265476 -11.35514963 50.43961965 -19.75415039 42.63476562 C-21.62915039 40.32226562 -21.62915039 40.32226562 -21.62915039 38.32226562 C-22.28915039 38.32226562 -22.94915039 38.32226562 -23.62915039 38.32226562 C-26.42443084 31.02534878 -27.30853879 22.33699749 -24.78930664 14.81445312 C-19.21501607 5.24243902 -10.95300414 0.03488894 0 0 Z " fill="#040404" transform="translate(641.629150390625,609.677734375)"/>
<path d="M0 0 C0.66 0.99 1.32 1.98 2 3 C-0.64 4.98 -3.28 6.96 -6 9 C-5.34 9.66 -4.68 10.32 -4 11 C-8.75 10.25 -8.75 10.25 -11 8 C-10.18595703 7.51080078 -10.18595703 7.51080078 -9.35546875 7.01171875 C-8.28232422 6.35623047 -8.28232422 6.35623047 -7.1875 5.6875 C-6.47980469 5.25824219 -5.77210938 4.82898438 -5.04296875 4.38671875 C-3.11039769 3.07493533 -1.58589388 1.70596155 0 0 Z " fill="#D7D7D7" transform="translate(305,837)"/>
<path d="M0 0 C1 2 1 2 0.8125 4 C-0.25743569 6.63368784 -1.44254635 6.91501966 -4 8 C-4.66 8.66 -5.32 9.32 -6 10 C-9.625 10.125 -9.625 10.125 -13 10 C-12.01 9.34 -11.02 8.68 -10 8 C-8.989375 7.29875 -7.97875 6.5975 -6.9375 5.875 C-4 4 -4 4 -2 4 C-1.34 2.68 -0.68 1.36 0 0 Z " fill="#D4D4D4" transform="translate(814,754)"/>
<path d="M0 0 C0.99 0.33 1.98 0.66 3 1 C2.07038578 2.15224028 1.1309875 3.29659176 0.1875 4.4375 C-0.59560547 5.39462891 -0.59560547 5.39462891 -1.39453125 6.37109375 C-3 8 -3 8 -6 9 C-5.67 7.02 -5.34 5.04 -5 3 C-3.68 3 -2.36 3 -1 3 C-0.67 2.01 -0.34 1.02 0 0 Z " fill="#141414" transform="translate(933,865)"/>
<path d="M0 0 C0 3.6635921 -0.70387217 4.22881124 -3 7 C-3.61488281 7.78697266 -3.61488281 7.78697266 -4.2421875 8.58984375 C-5.44434301 10.10142982 -6.71892833 11.55468837 -8 13 C-8.66 13 -9.32 13 -10 13 C-8.48446596 9.52224821 -6.4226544 7.0442016 -3.875 4.25 C-3.15054687 3.45078125 -2.42609375 2.6515625 -1.6796875 1.828125 C-0.84824219 0.92320312 -0.84824219 0.92320312 0 0 Z " fill="#282828" transform="translate(263,351)"/>
<path d="M0 0 C0.33 0 0.66 0 1 0 C1.33 3.96 1.66 7.92 2 12 C0.68 12.33 -0.64 12.66 -2 13 C-1.34 8.71 -0.68 4.42 0 0 Z " fill="#E2E2E2" transform="translate(733,633)"/>
<path d="M0 0 C2.64752004 2.57784846 4.94432065 4.91648098 7 8 C5.33333333 8 3.66666667 8 2 8 C1.67 7.01 1.34 6.02 1 5 C0.34 4.67 -0.32 4.34 -1 4 C-0.67 2.68 -0.34 1.36 0 0 Z " fill="#D9D9D9" transform="translate(619,648)"/>
<path d="M0 0 C0.33 1.32 0.66 2.64 1 4 C-0.98 4.99 -0.98 4.99 -3 6 C-3 6.66 -3 7.32 -3 8 C-3.99 8.33 -4.98 8.66 -6 9 C-4.68775452 5.06326356 -3.08089673 2.77280706 0 0 Z " fill="#1D1D1D" transform="translate(261,615)"/>
<path d="M0 0 C0.33 0.66 0.66 1.32 1 2 C2.0725 1.773125 3.145 1.54625 4.25 1.3125 C8 1 8 1 10.4375 2.4375 C10.953125 2.953125 11.46875 3.46875 12 4 C6.78020872 4.1799928 2.92737019 3.97094808 -2 2 C-1.34 1.34 -0.68 0.68 0 0 Z " fill="#464646" transform="translate(56,873)"/>
<path d="M0 0 C0.33 0 0.66 0 1 0 C1.3125 2.75 1.3125 2.75 1 6 C-1.5 8.375 -1.5 8.375 -4 10 C-4.66 9.67 -5.32 9.34 -6 9 C-5.02501855 7.4972763 -4.04490611 5.99788037 -3.0625 4.5 C-2.51722656 3.6646875 -1.97195313 2.829375 -1.41015625 1.96875 C-0.94480469 1.3190625 -0.47945312 0.669375 0 0 Z " fill="#D2D2D2" transform="translate(855,487)"/>
<path d="M0 0 C0.66 0.66 1.32 1.32 2 2 C0.35 4.31 -1.3 6.62 -3 9 C-3.66 7.68 -4.32 6.36 -5 5 C-3.35 3.35 -1.7 1.7 0 0 Z " fill="#181818" transform="translate(849,493)"/>
<path d="M0 0 C6.52307692 -0.36923077 6.52307692 -0.36923077 8.9375 1.5 C9.288125 1.995 9.63875 2.49 10 3 C8.375 3.6875 8.375 3.6875 6 4 C2.75 2.5625 2.75 2.5625 0 1 C0 0.67 0 0.34 0 0 Z " fill="#1E1E1E" transform="translate(662,376)"/>
<path d="M0 0 C0.99 0 1.98 0 3 0 C3.33 2.31 3.66 4.62 4 7 C3.01 6.67 2.02 6.34 1 6 C0.67 4.02 0.34 2.04 0 0 Z " fill="#1E1E1E" transform="translate(668,826)"/>
<path d="M0 0 C0.99 0.99 1.98 1.98 3 3 C2.67 3.99 2.34 4.98 2 6 C1.01 6.33 0.02 6.66 -1 7 C-2 4 -2 4 -1.0625 1.8125 C-0.5365625 0.9153125 -0.5365625 0.9153125 0 0 Z " fill="#1C1C1C" transform="translate(220,430)"/>
<path d="M0 0 C3 1 3 1 5 4 C4.67 5.32 4.34 6.64 4 8 C2.35 5.69 0.7 3.38 -1 1 C-0.67 0.67 -0.34 0.34 0 0 Z " fill="#DBDBDB" transform="translate(715,351)"/>
<path d="M0 0 C1.32 0.33 2.64 0.66 4 1 C4 3.31 4 5.62 4 8 C3.34 8 2.68 8 2 8 C1.34 5.36 0.68 2.72 0 0 Z " fill="#262626" transform="translate(616,640)"/>
<path d="M0 0 C0.33 0 0.66 0 1 0 C1 1.98 1 3.96 1 6 C-0.98 6.99 -0.98 6.99 -3 8 C-2.45276317 4.62537285 -1.9451 2.91765 0 0 Z " fill="#292929" transform="translate(155,534)"/>
<path d="M0 0 C0.66 0.66 1.32 1.32 2 2 C0.02 4.31 -1.96 6.62 -4 9 C-4.66 8.67 -5.32 8.34 -6 8 C-4.02 5.36 -2.04 2.72 0 0 Z " fill="#2D2D2D" transform="translate(797,482)"/>
<path d="M0 0 C0.66 1.32 1.32 2.64 2 4 C0.75 6.75 0.75 6.75 -1 9 C-1.66 9 -2.32 9 -3 9 C-2.01 6.03 -1.02 3.06 0 0 Z " fill="#313131" transform="translate(206,460)"/>
<path d="M0 0 C0.99 0 1.98 0 3 0 C2.67 2.31 2.34 4.62 2 7 C1.01 6.34 0.02 5.68 -1 5 C-0.67 3.35 -0.34 1.7 0 0 Z " fill="#181818" transform="translate(277,417)"/>
</svg>
