<svg width="84" height="85" viewBox="0 0 84 85" fill="none" xmlns="http://www.w3.org/2000/svg">
<rect y="0.166748" width="84" height="84" rx="8" fill="#EF7B34"/>
<path d="M74.1148 8.24683H11.3853C9.03915 8.24683 7.13721 10.1492 7.13721 12.4959V75.2405C7.13721 77.5872 9.03915 79.4896 11.3853 79.4896H74.1148C76.4609 79.4896 78.3628 77.5872 78.3628 75.2405V12.4959C78.3628 10.1492 76.4609 8.24683 74.1148 8.24683Z" fill="#EF7B34"/>
<path d="M18.1062 64.749C17.8741 66.3972 15.1681 66.4692 15 64.501V19.5202C15.0801 18.5921 15.7846 18.016 16.7052 18H69.2948C70.2154 18.016 70.9199 18.5921 71 19.5202V64.565C70.8479 66.0292 68.9585 66.5412 68.15 65.3011C68.0859 65.2051 67.8938 64.781 67.8938 64.693V27.401L67.7977 27.305H18.1943L18.0982 27.401V64.749H18.1062ZM67.8938 24.2007V21.1923L67.7977 21.0963H18.1062V24.2007H67.8938Z" fill="white"/>
<path d="M25.0326 58.7861C23.8464 58.7698 22.3739 59.0211 21.924 57.6188L20.9014 46.6276C20.7951 45.4847 21.1959 44.4715 21.924 43.6042L20.1979 41.4806C19.5108 40.1756 20.7215 38.6922 22.1613 39.2272C22.8321 39.4785 23.4456 40.5079 23.9037 41.051H24.0837C24.9999 39.0489 25.8425 36.9901 26.8242 35.0042C27.9531 32.7103 29.491 31.2675 32.1743 31H52.9856C57.4604 31.3566 58.532 35.6526 60.1109 39.0246C60.5526 39.981 61.0107 40.9375 61.4852 41.8696L63.1949 39.673C64.4711 38.3275 66.4835 39.592 65.8945 41.2779L63.8248 44.1068C64.2011 44.739 64.512 45.4928 64.5038 46.2467C64.5038 46.5628 64.3975 46.9356 64.3729 47.2518C64.1193 50.6885 63.833 54.1172 63.5303 57.5459C63.4322 58.1538 62.6632 58.7861 62.0578 58.7861H60.1845V62.7173C60.1845 62.7173 59.9636 63.2036 59.9227 63.2685C59.6855 63.617 59.2355 63.8845 58.8183 63.9331C58.0657 64.0223 56.0942 64.0223 55.3334 63.9331C54.5072 63.844 54 63.1712 53.91 62.385C53.7873 61.2421 53.9836 59.9371 53.91 58.778H31.3235V62.4579C31.3235 62.5471 31.1762 62.9686 31.1271 63.082C30.8981 63.5927 30.3254 63.8926 29.7692 63.9412C29.082 63.998 26.8487 64.0385 26.2434 63.9088C25.8016 63.8196 25.0408 63.1793 25.0408 62.7092V58.778L25.0326 58.7861ZM58.213 42.51L55.0962 35.7013C54.6217 34.8745 53.6973 34.2179 52.732 34.145H32.4279C31.3971 34.1936 30.5545 34.8177 30.0228 35.6607L26.906 42.3803L26.9714 42.51H58.213ZM24.5091 45.6631C24.1246 45.809 24.0673 46.0602 24.0837 46.4412C24.19 49.0755 24.5745 51.9692 24.8445 54.6117C24.8608 54.8062 24.8118 55.5681 25.0081 55.6411L60.4299 55.6168L60.5444 55.4141L61.3052 46.2467C61.2725 46.0278 61.1253 45.7198 60.888 45.6631H24.5091Z" fill="white"/>
<path d="M52.2515 49.0763C53.6465 49.1667 55.2264 48.8855 56.5983 49.0562C58.3863 49.2672 58.4865 52.4714 56.7678 52.9435C55.342 52.833 53.7544 53.1142 52.3517 52.9435C50.6177 52.7426 50.5175 49.448 52.2515 49.0663V49.0763Z" fill="white"/>
<path d="M29.2373 49.1071C29.9866 48.9676 33.0842 48.9576 33.8104 49.1171C35.3862 49.4859 35.4017 52.4957 33.8258 52.9243C32.389 52.8346 30.7668 53.1136 29.3454 52.9442C27.5765 52.7349 27.561 49.4061 29.245 49.0972L29.2373 49.1071Z" fill="white"/>
</svg>
