<svg width="58" height="58" viewBox="0 0 58 58" fill="none" xmlns="http://www.w3.org/2000/svg">
<path d="M42.2916 15.708H42.3158M16.9166 4.83301H41.0833C47.7567 4.83301 53.1666 10.2429 53.1666 16.9163V41.083C53.1666 47.7564 47.7567 53.1663 41.0833 53.1663H16.9166C10.2431 53.1663 4.83325 47.7564 4.83325 41.083V16.9163C4.83325 10.2429 10.2431 4.83301 16.9166 4.83301ZM38.6666 27.4772C38.9648 29.4884 38.6213 31.5425 37.6848 33.3473C36.7484 35.1521 35.2667 36.6156 33.4505 37.5297C31.6343 38.4439 29.5762 38.762 27.5687 38.439C25.5613 38.116 23.7068 37.1682 22.2691 35.7305C20.8314 34.2928 19.8836 32.4383 19.5606 30.4309C19.2376 28.4234 19.5557 26.3653 20.4699 24.5491C21.384 22.7329 22.8475 21.2512 24.6523 20.3148C26.4571 19.3783 28.5112 19.0348 30.5224 19.333C32.574 19.6372 34.4733 20.5932 35.9398 22.0597C37.4064 23.5263 38.3624 25.4256 38.6666 27.4772Z" stroke="#EF7B34" stroke-width="5" stroke-linecap="round" stroke-linejoin="round"/>
</svg>
