<svg width="39" height="39" viewBox="0 0 39 39" fill="none" xmlns="http://www.w3.org/2000/svg">
<g clip-path="url(#clip0_368_164)">
<path d="M19.4999 0.0336914C15.1634 0.0388528 11.0061 1.76391 7.93987 4.83042C4.87366 7.89693 3.14902 12.0545 3.14429 16.3909C3.14429 24.9612 16.414 36.4256 17.9318 37.7061L19.5032 39.0337L21.0745 37.7061C22.589 36.4256 35.862 24.9612 35.862 16.3909C35.8573 12.0533 34.1318 7.89482 31.0642 4.82812C27.9966 1.76143 23.8375 0.0371324 19.4999 0.0336914ZM19.4999 32.6036C14.5193 28.0666 8.01604 20.6956 8.01604 16.3909C8.01604 13.3452 9.22594 10.4243 11.3796 8.27062C13.5332 6.11697 16.4542 4.90707 19.4999 4.90707C22.5456 4.90707 25.4666 6.11697 27.6202 8.27062C29.7739 10.4243 30.9838 13.3452 30.9838 16.3909C30.9838 20.6874 24.4789 28.0617 19.4999 32.6036Z" fill="#EF7B34"/>
<path d="M19.5 21.1226C22.1897 21.1226 24.3701 18.9421 24.3701 16.2524C24.3701 13.5627 22.1897 11.3823 19.5 11.3823C16.8103 11.3823 14.6299 13.5627 14.6299 16.2524C14.6299 18.9421 16.8103 21.1226 19.5 21.1226Z" fill="#EF7B34"/>
</g>
<defs>
<clipPath id="clip0_368_164">
<rect width="39" height="39" fill="white"/>
</clipPath>
</defs>
</svg>
