<svg width="84" height="85" viewBox="0 0 84 85" fill="none" xmlns="http://www.w3.org/2000/svg">
<rect y="0.833252" width="84" height="84" rx="8" fill="#EF7B34"/>
<path d="M23.8361 68.2641C20.8844 67.9428 17.29 64.7655 17.29 61.6715V32.5996H26.2165V17.5342H43.2125L49.9967 24.3172V44.4759H52.9721V20.5092H55.9476V56.3759H68.04V59.351H55.9476V62.326H68.04V65.301H52.9721V53.4128H49.9967V63.0757C49.9967 63.3256 49.6396 64.3847 49.5206 64.6822C48.7112 66.6338 46.8664 67.8833 44.8431 68.276H43.2601C40.3442 67.7524 38.0947 65.3486 38.1066 62.326H32.0128C31.501 64.7417 29.6919 66.9313 27.3591 67.7881C26.764 68.0142 26.1213 68.0975 25.5024 68.2641C24.9549 68.2284 24.3479 68.3236 23.8123 68.2641H23.8361ZM44.8431 23.4842L41.9152 20.5092H29.1801V23.4842H44.8431ZM47.0331 26.4473H29.192V41.5009H34.0956C34.6312 41.5009 38.8445 44.1546 39.8919 44.4283C40.2846 44.5235 40.6893 44.4521 41.0821 44.4759V35.5628H44.0576V44.4759H47.0331V26.4473ZM26.2165 35.5628H20.2655V41.5128H26.2165V35.5628ZM47.0331 47.4509H39.154L33.3101 44.4759H20.2655V54.8765C24.6336 51.5921 30.9178 54.0554 32.0247 59.3391L38.8326 59.3153C39.2968 58.7917 39.6895 58.1967 40.237 57.7444C42.1533 56.1379 44.8669 55.9118 47.0331 57.1494V47.439V47.4509ZM52.9721 47.4509H49.9967V50.4259H52.9721V47.4509ZM24.2051 56.3997C18.5278 57.0186 19.2896 65.7175 25.0739 65.2891C30.8583 64.8607 30.2275 55.7452 24.2051 56.3997ZM43.6291 59.3748C39.88 59.8627 40.4751 65.6818 44.3908 65.2772C48.3066 64.8726 47.652 58.8393 43.6291 59.3748Z" fill="white"/>
<path d="M26.04 59.5342H22.54V62.1592H26.04V59.5342Z" fill="white"/>
</svg>
