<svg width="84" height="85" viewBox="0 0 84 85" fill="none" xmlns="http://www.w3.org/2000/svg">
<rect y="0.5" width="84" height="84" rx="8" fill="#EF7B34"/>
<path d="M69.9577 61.0192C69.7354 61.3086 69.5378 61.5854 69.1425 61.5728H62.8682C61.8431 68.6185 51.9004 68.6311 50.863 61.5728H34.0655C33.028 68.6311 23.0854 68.6185 22.0603 61.5728H16.5393C16.3664 61.6735 15.8353 61.1199 15.8353 61.0695V58.0122C15.1313 58.0122 14.2791 58.1883 14.0938 57.2825C14.3408 53.5331 13.748 49.3182 14.0938 45.6192C14.1926 44.4995 14.9584 44.6756 15.8477 44.6756V31.9429C15.8477 31.8171 16.317 31.3264 16.4529 31.3264H26.3214V25.715C26.3214 25.5892 26.7907 25.0985 26.9266 25.0985H36.7951V18.5938C36.7951 18.3799 37.3385 17.9144 37.6103 17.9773C41.5502 18.2541 45.9596 17.6124 49.8378 17.9773C50.1466 18.0024 50.7641 18.2289 50.7641 18.5938V33.9938H63.2634C63.4363 33.9938 63.7204 34.3838 63.8192 34.5474C65.8077 38.108 67.117 42.5619 69.0808 46.198V56.1627C69.5007 56.3011 69.7354 56.4143 69.9824 56.7918V61.0192H69.9577ZM41.155 19.789H38.5366V44.6882H49.0103V19.789H46.3919V23.6265C46.3919 23.8529 45.9225 24.1926 45.6755 24.2304C44.9468 24.3436 42.8471 24.3184 42.0813 24.2304C41.7726 24.2052 41.155 23.9787 41.155 23.6139V19.7765V19.789ZM44.638 19.789H42.8965V22.4564H44.638V19.789ZM31.5459 26.8977H28.0505V35.7929H36.7827V26.8977H33.2874C33.6826 29.2882 31.1383 29.2882 31.5459 26.8977ZM19.3307 33.1256H17.5892V44.6882H26.3214V33.1256H24.5799V35.1764C24.5799 35.4029 24.1105 35.7426 23.8635 35.7804C23.1348 35.8936 21.0351 35.8684 20.2693 35.7804C19.9606 35.7552 19.343 35.5287 19.343 35.1639V33.113L19.3307 33.1256ZM22.826 33.1256H21.0845V34.0189H22.826V33.1256ZM53.3702 35.7929H50.7518V50.2996C50.7518 50.5513 50.1219 50.9413 49.8255 50.9287C49.5784 50.9287 49.0103 50.5009 49.0103 50.2996V46.4622H15.8353V56.2382H19.6024C19.8 56.2382 20.2076 56.8169 20.2199 57.0686C20.2323 57.3705 19.8494 58.0122 19.6024 58.0122H17.5892V59.7862H22.0603C23.0854 52.7405 33.028 52.7279 34.0655 59.7862H50.8012C51.9869 52.7405 61.7936 52.7153 62.8682 59.7862H68.2162V58.0122H66.3018C65.9683 58.0122 65.5731 57.4334 65.5978 57.0811C65.6472 56.1878 66.697 56.1878 67.3393 56.2382V53.6338C66.203 53.3444 66.1289 51.973 67.3393 51.7843V47.3429H57.2485C55.5687 47.3429 53.3702 45.1034 53.3702 43.3923V35.7804V35.7929ZM66.7958 45.5815L62.3741 35.8055H55.1241V43.4174C55.1241 44.122 56.5568 45.5815 57.2485 45.5815H66.7958ZM31.5459 37.567H28.0505V44.6756H36.7827V37.567H33.2874V39.6178C33.2874 39.8694 32.6575 40.2594 32.361 40.2469C32.114 40.2469 31.5459 39.8191 31.5459 39.6178V37.567ZM27.5935 56.2759C21.9861 56.8924 22.7643 65.4857 28.3222 65.1334C33.8802 64.7811 33.4109 55.6343 27.5935 56.2759ZM56.3962 56.2759C50.7888 56.8924 51.567 65.4857 57.1249 65.1334C62.6829 64.7811 62.2136 55.6343 56.3962 56.2759Z" fill="white"/>
<path d="M27.5138 58.1575C31.0651 57.5674 31.8333 62.8782 28.3702 63.333C24.907 63.7879 24.1766 58.7107 27.5138 58.1575ZM28.622 60.1122C27.8161 59.3254 26.5442 60.567 27.3501 61.3538C28.1561 62.1406 29.428 60.8989 28.622 60.1122Z" fill="white"/>
<path d="M56.3888 58.1575C59.9401 57.5674 60.7083 62.8782 57.2452 63.333C53.782 63.7879 53.0516 58.7107 56.3888 58.1575ZM57.497 60.1122C56.6911 59.3254 55.4192 60.567 56.2251 61.3538C57.0311 62.1406 58.303 60.8989 57.497 60.1122Z" fill="white"/>
</svg>
