<svg width="84" height="85" viewBox="0 0 84 85" fill="none" xmlns="http://www.w3.org/2000/svg">
<rect y="0.166748" width="84" height="84" rx="8" fill="#EF7B34"/>
<path d="M31.0562 62.4442C30.9657 62.189 30.8752 61.8956 30.8493 61.6276C30.2934 56.1921 30.9916 50.2716 30.7459 44.7723C31.0562 42.6032 32.6983 41.0848 34.9222 40.9317H61.5187C63.7038 41.0975 65.3588 42.7435 65.6045 44.8616C65.2941 50.1058 66.0182 55.8093 65.6045 60.9896C65.4364 63.1587 63.7167 64.8558 61.5187 65.0216C59.8119 65.1492 57.9242 64.9196 56.2045 65.0216C55.2736 66.4635 53.7996 67.4459 52.0412 67.6118H26.6601C24.5138 67.3056 22.7424 65.8127 22.1735 63.7329C21.7985 49.4423 22.1218 35.0878 22.0054 20.7716C22.2381 18.258 24.2164 16.2803 26.7506 15.9868H52.1317C54.4332 16.2548 56.4502 17.9773 56.7734 20.2868C58.4285 20.0826 59.9283 20.7334 60.3421 22.4176L60.3162 32.0255C59.8895 33.6205 58.4802 34.2712 56.8769 34.0671C56.7993 34.1436 56.9545 35.7258 56.8252 36.1213C56.5795 36.9124 55.1184 36.7721 55.1314 35.8534V20.7844C54.9245 19.3936 54.0711 18.3473 52.7394 17.8625C44.2187 17.4797 35.6204 17.8114 27.0739 17.6966C25.2249 17.8369 23.8931 19.1512 23.7509 20.9758V62.5973C23.8931 64.3837 25.1732 65.6724 26.9704 65.8765H51.8214L52.8169 65.6851L53.9418 65.0216H34.4955C33.7585 65.0216 32.931 64.2561 32.4138 64.1667C30.8623 63.886 28.5091 64.4092 26.8928 64.1412C26.2593 64.0392 25.6387 63.4395 25.5352 62.8015L25.5094 21.1034C25.5352 20.1975 26.2722 19.4702 27.2032 19.4319H51.7309C52.6101 19.4574 53.3341 20.1337 53.4117 21.0013V35.8406C53.2695 37.0655 51.6662 36.619 51.6662 36.0575V21.1544H27.2419V62.4442H31.0562ZM56.8769 32.3318C57.5492 32.3318 58.3509 32.5104 58.5965 31.7193L58.5319 22.4687C58.1957 21.8307 57.4717 22.0348 56.864 22.0093V32.3318H56.8769ZM34.6248 42.6797C33.4999 42.9349 32.6336 43.8281 32.4785 44.9637V60.9896C32.6207 62.0487 33.4224 62.9418 34.4567 63.2225L61.4023 63.2991C62.5272 63.2098 63.484 62.3932 63.7684 61.3341L63.846 44.9509C63.7038 43.8919 62.9021 42.9987 61.8678 42.718L34.6248 42.667V42.6797Z" fill="white"/>
<path d="M40.8135 37.7047H59.0233C59.6333 37.7047 60.0486 39.4564 58.8026 39.6118H38.4643C37.8153 39.4988 37.5557 38.7359 37.8672 38.1426L41.0861 34.6108C41.8129 33.9892 42.7474 34.6108 42.5397 35.5997C42.4229 36.1931 41.112 37.0972 40.8135 37.7047Z" fill="white"/>
<path d="M47.3455 44.9119C59.5409 43.8045 60.5002 61.4252 48.3048 61.4867C37.0425 61.5359 36.3986 45.9086 47.3455 44.9119ZM47.8974 46.5608C38.3961 47.0038 39.3948 60.4777 48.8568 59.8009C57.7931 59.1611 57.2411 46.1301 47.8974 46.5608Z" fill="white"/>
<path d="M49.1227 48.3699H51.1499C51.6957 48.3699 52.2674 49.9873 50.825 50.1167C50.0063 50.1943 47.3034 49.9096 46.8226 50.2719C46.3418 50.6342 46.4198 51.54 46.9656 51.7729C47.5113 52.0058 48.7978 51.7729 49.4995 51.8634C52.6443 52.2775 52.3454 57.1167 49.1227 57.0908C49.5385 59.4586 46.9526 59.4457 47.3684 57.0908H45.3412C44.7694 57.0908 44.1977 55.4734 45.6661 55.344C46.5107 55.2664 49.1487 55.5511 49.6685 55.1888C50.0973 54.8782 50.1233 54.1795 49.7335 53.8302C49.2526 53.4032 47.7063 53.7008 47.0046 53.6102C43.8598 53.1962 44.1457 48.357 47.3814 48.3828C46.9656 46.015 49.5515 46.0279 49.1357 48.3828L49.1227 48.3699Z" fill="white"/>
</svg>
