<svg width="84" height="85" viewBox="0 0 84 85" fill="none" xmlns="http://www.w3.org/2000/svg">
<rect y="0.5" width="84" height="84" rx="8" fill="#EF7B34"/>
<path d="M43.1528 13.7056C48.8521 17.0529 54.8528 19.9063 61.1002 22.0875C62.9771 22.7323 65.6486 23.2673 67.3201 24.0081C67.6489 24.159 67.9229 24.4471 68.0873 24.7626C68.0462 33.9129 69.06 42.8161 65.7856 51.5548C62.5113 60.2935 55.0857 68.4834 46.7286 72.1325C43.3172 73.6278 42.0431 73.5318 38.6728 72.0227C30.3704 68.2776 23.0271 60.0602 19.8486 51.5548C16.6702 43.0494 17.5881 33.9129 17.547 24.7626L18.3142 24.0081C26.8084 21.7034 34.9463 18.2052 42.4815 13.7056H43.1802H43.1528ZM65.676 26.1619C57.7025 23.8709 50.0851 20.5236 42.8514 16.4904C42.4404 16.463 40.2346 17.876 39.6729 18.1778C33.3708 21.4839 26.7947 24.2002 19.9308 26.1619C20.0404 33.5973 19.2732 41.1288 21.3968 48.3447C24.0409 57.3303 31.6994 66.5628 40.4812 70.061C42.8788 71.0213 43.4816 70.8155 45.7832 69.8004C57.4696 64.6285 65.7171 51.445 65.6897 38.6594L65.6623 26.1619H65.676Z" fill="white"/>
<path d="M57.3304 33.1972C59.1886 34.9579 58.8114 37.3788 57.2606 39.1669C52.6221 44.4763 46.4607 49.2218 41.6825 54.5037C39.7545 56.1131 37.6867 56.0993 35.7587 54.5037C33.6769 52.7706 30.0025 49.153 28.2281 47.0898C25.6574 44.0912 27.6692 39.7996 31.6092 40.1435C34.2078 40.3636 36.7366 44.3388 38.7066 45.8656L51.9235 32.8671C53.5163 31.7117 55.8914 31.8355 57.3304 33.1972ZM54.145 34.5865C53.7817 34.6415 53.4324 34.9166 53.167 35.1367L39.2515 48.7266C38.7625 49.0017 38.3154 48.8504 37.8823 48.5478C36.1499 47.3511 34.2917 44.7102 32.5592 43.2934C30.4356 41.574 28.5774 43.7473 30.24 45.5767C32.6989 47.585 34.9483 50.7486 37.4073 52.633C38.0639 53.142 38.539 53.4171 39.3633 53.0457L55.7656 37.0074C56.5201 35.8382 55.5142 34.3664 54.145 34.5865Z" fill="white"/>
<path d="M24.508 29.5561C24.3692 29.7048 24.5636 32.8958 24.4803 33.4907C24.272 35.0051 22.328 35.1538 21.9809 33.653C21.7726 32.7876 21.8143 29.9752 21.8976 29.0152C21.9809 28.1228 22.092 27.8524 22.9251 27.5008C25.119 26.5814 27.7711 26.027 29.9927 25.0941C31.1452 24.9318 31.9367 26.2704 31.1175 27.1222C30.7009 27.5549 27.8961 28.4744 27.1324 28.7448C26.2715 29.0422 25.3828 29.3262 24.4942 29.5561H24.508Z" fill="white"/>
<path d="M56.8331 54.0054C58.253 53.7026 59.0065 54.8313 58.3255 56.0013C57.0939 58.1074 52.3848 62.9527 50.2259 64.1916C49.1971 64.7835 48.0235 64.3567 48.0814 63.1454C48.1249 62.2645 50.3707 60.8742 51.0952 60.2272C52.2544 59.2086 53.4135 57.9973 54.4133 56.841C54.8915 56.2766 56.2969 54.1293 56.8331 54.0054Z" fill="white"/>
<path d="M46.5453 64.473C48.5199 64.2567 48.5485 66.1278 46.8601 66.2031C45.1716 66.2783 44.9283 64.6422 46.5453 64.473Z" fill="white"/>
<path d="M33.4602 24.464C34.2144 23.703 35.4401 24.7834 34.7518 25.6289C33.9881 26.559 32.6399 25.2907 33.4602 24.464Z" fill="white"/>
</svg>
