<svg width="84" height="85" viewBox="0 0 84 85" fill="none" xmlns="http://www.w3.org/2000/svg">
<rect y="0.833252" width="84" height="84" rx="8" fill="#EF7B34"/>
<path d="M25.6187 22.0015C25.7876 22.1908 26.0651 22.2027 26.2461 22.3921C26.2943 22.4512 26.596 22.972 26.596 23.0075V24.6172L30.9635 24.6409C32.351 25.0433 32.351 26.8069 30.9635 27.2093L26.596 27.233V28.8427C26.596 28.8427 26.2943 29.399 26.2461 29.4582C26.1858 29.5292 25.6187 29.8488 25.5825 29.8488H23.9417V37.7671H46.0568L48.6749 35.1632H46.3222C46.3222 35.1632 45.7189 34.8436 45.6586 34.7726C44.9709 34.0506 45.3208 32.867 46.2739 32.5948C48.0837 32.6776 50.3278 32.3462 52.0892 32.5474C52.7166 32.6184 53.2113 33.1037 53.2837 33.7192C53.5008 35.4473 53.151 37.6488 53.2354 39.4242C52.9579 40.3592 51.7514 40.7025 51.0155 40.0278C50.9431 39.9686 50.6173 39.4123 50.6173 39.3768V37.0688L47.963 39.6372V61.3328H56.0345V59.7231C56.0345 59.7231 56.3361 59.1668 56.3844 59.1076C56.4447 59.0366 57.0117 58.717 57.0479 58.717H58.6888L58.7129 54.4323C59.1231 53.0712 60.9208 53.0712 61.331 54.4323L61.3551 58.717H62.996C62.996 58.717 63.563 59.0129 63.6233 59.0602C63.8164 59.2378 63.8284 59.51 64.0215 59.6757V65.5938C63.744 66.0909 63.5148 66.4105 62.9115 66.5407C61.1259 66.4223 59.0869 66.7182 57.3254 66.5407C57.06 66.517 56.6377 66.375 56.4447 66.1856C56.3723 66.1264 56.0465 65.5701 56.0465 65.5346V63.9249H26.596V65.5346C26.596 65.5346 26.2702 66.1264 26.1978 66.1856C26.041 66.3276 25.6187 66.5051 25.4015 66.5288C24.3036 66.659 20.9134 66.659 19.8155 66.5288C19.1881 66.4578 18.6934 65.9725 18.621 65.357C18.4883 64.2681 18.4883 60.954 18.621 59.8769C18.6452 59.6639 18.8382 59.2496 18.9709 59.0958C19.0312 59.0247 19.5983 58.7052 19.6345 58.7052H21.2753V29.8251H19.6345C19.6345 29.8251 19.0312 29.5055 18.9709 29.4345C18.7899 29.2333 18.6452 28.8309 18.609 28.5705C18.44 26.8543 18.7417 24.8421 18.609 23.0904C18.7537 22.4986 19.0674 22.2737 19.5742 22.0015H25.6066H25.6187ZM23.9417 24.6054H21.2874V27.2093H23.9417V24.6054ZM43.3542 40.3474H23.9417V58.6933H25.5825C25.5825 58.6933 26.1858 59.0129 26.2461 59.0839C26.2943 59.1431 26.596 59.6639 26.596 59.6994V61.3091H45.2967V42.2648L33.9556 53.3908H36.3083C36.3083 53.3908 36.9115 53.7103 36.9718 53.7814C37.6595 54.5034 37.3097 55.687 36.3565 55.9592C34.5468 55.8763 32.3027 56.2078 30.5412 56.0065C29.938 55.9355 29.4192 55.4266 29.3468 54.8348C29.1296 53.1067 29.4795 50.9052 29.395 49.1298C29.6725 48.1947 30.879 47.8515 31.615 48.5261C31.6874 48.5853 32.0131 49.1416 32.0131 49.1771V51.4852L43.3542 40.3592V40.3474ZM23.9417 61.3091H21.2874V63.913H23.9417V61.3091ZM61.3431 61.3091H58.6888V63.913H61.3431V61.3091Z" fill="white"/>
<path d="M63.0639 22.0133C63.5604 22.2731 63.7614 22.4739 64.0215 22.97V28.8755C63.8323 29.0408 63.8205 29.3125 63.6314 29.4897C63.5723 29.5369 63.0521 29.8322 63.0166 29.8322H61.4089L61.3853 34.1078C60.9833 35.466 59.2219 35.466 58.82 34.1078L58.7963 29.8322H57.1886C57.1886 29.8322 56.5975 29.5133 56.5384 29.4424C56.4911 29.3834 56.1955 28.8637 56.1955 28.8282V27.2219L51.9161 27.1983C50.5566 26.7967 50.5566 25.0369 51.9161 24.6353L56.1955 24.6117V23.0054C56.1955 23.0054 56.4911 22.4503 56.5384 22.3912C56.7157 22.2023 56.9876 22.1904 57.1531 22.0015H63.0639V22.0133ZM61.4089 24.6117H58.8081V27.2101H61.4089V24.6117Z" fill="white"/>
<path d="M36.173 24.6845C36.5911 24.6036 39.052 24.6036 39.4462 24.7077C40.7484 25.0314 40.7006 26.939 39.3746 27.1934C38.9565 27.2743 36.4955 27.2743 36.1013 27.1703C34.7872 26.8465 34.8469 24.9389 36.173 24.6845Z" fill="white"/>
<path d="M44.048 24.6845C44.4661 24.6036 46.927 24.6036 47.3212 24.7077C48.6234 25.0314 48.5756 26.939 47.2496 27.1934C46.8315 27.2743 44.3705 27.2743 43.9763 27.1703C42.6622 26.8465 42.7219 24.9389 44.048 24.6845Z" fill="white"/>
<path d="M60.1619 37.7782C61.1411 37.6232 62.0897 38.1597 62.2121 38.9347C62.2886 39.4593 62.3039 41.51 62.1815 41.9869C61.8143 43.3818 59.0757 43.346 58.8309 41.8319C58.7544 41.3073 58.7391 39.2566 58.8615 38.7797C58.9839 38.3028 59.5653 37.8617 60.1466 37.7782H60.1619Z" fill="white"/>
<path d="M60.1619 45.6532C61.1411 45.4982 62.0897 46.0347 62.2121 46.8097C62.2886 47.3343 62.3039 49.385 62.1815 49.8619C61.8143 51.2568 59.0757 51.221 58.8309 49.7069C58.7544 49.1823 58.7391 47.1316 58.8615 46.6547C58.9839 46.1778 59.5653 45.7367 60.1466 45.6532H60.1619Z" fill="white"/>
</svg>
